<svg width="24" height="30" viewBox="0 0 24 30" fill="currentColor" xmlns="http://www.w3.org/2000/svg">
<g clip-path="url(#clip0_1549_10978)">
<path d="M24.0001 6.02327C24.0028 5.5234 23.8079 5.22769 23.3486 5.03475C20.1673 3.6982 16.8026 2.2785 12.4392 0.431339C12.287 0.366871 12.1445 0.335571 12.0033 0.335571C11.8621 0.335571 11.7155 0.367338 11.5596 0.433675C8.79398 1.60578 5.97962 2.79237 3.25859 3.93972C2.38959 4.30645 1.52059 4.6727 0.651595 5.03942C0.147668 5.25198 0.00145519 5.47295 0.00145519 6.0256C0.0009954 6.6516 0.00145519 7.27759 0.00191498 7.90359C0.00191498 9.05421 0.00283455 10.2441 7.58246e-05 11.4148C-0.00360248 12.8719 0.126517 14.2033 0.396873 15.4861C0.838729 17.5799 1.57623 19.5289 2.58914 21.2794C3.60297 23.0303 4.92072 24.6327 6.50699 26.0407C8.03119 27.395 9.82298 28.5031 11.8336 29.3356H12.1624L12.212 29.3145C12.2879 29.2823 12.3642 29.2496 12.4401 29.2169C15.911 27.7206 18.8247 25.2787 20.8652 22.1553C22.9062 19.0319 23.9886 15.3572 23.9959 11.5288C23.9973 10.8014 23.9969 10.0619 23.9959 9.34619C23.995 8.25723 23.9941 7.13137 24.0001 6.02327ZM22.4244 9.97172C22.4009 10.3809 22.3839 10.7991 22.3674 11.2041C22.3306 12.1038 22.2924 13.0344 22.1821 13.9473C21.8133 16.9992 20.6418 19.827 18.7001 22.3529C17.0205 24.5383 14.8862 26.2509 12.3564 27.4436C12.2346 27.5006 12.1192 27.5286 12.0033 27.5286C11.8874 27.5286 11.7601 27.4973 11.6299 27.4333C6.43756 24.8774 3.19744 20.7108 1.99923 15.0493C1.7606 13.922 1.69209 12.7541 1.65347 11.66C1.61715 10.6271 1.62405 9.57883 1.63002 8.56462C1.6337 8.01851 1.63692 7.45371 1.6337 6.89966C1.63186 6.57358 1.77026 6.36336 2.06912 6.23769C3.4678 5.65047 4.86555 5.06138 6.26376 4.47229C8.03441 3.72623 9.86528 2.95448 11.6681 2.19908C11.766 2.15797 11.8819 2.13601 12.0019 2.13601C12.1219 2.13601 12.2396 2.15844 12.3389 2.20001C14.0673 2.92411 15.8232 3.6641 17.5212 4.37932C18.9682 4.98944 20.4652 5.6201 21.9379 6.23816C22.3228 6.39933 22.3651 6.69878 22.3632 6.90947C22.3563 7.6616 22.3573 8.42728 22.3582 9.16773C22.3582 9.32516 22.3586 9.4826 22.3586 9.64003L22.4432 9.64517L22.4244 9.97172Z" fill="currentColor"/>
<path d="M19.1839 12.5056C19.039 12.4841 18.8974 12.4552 18.7604 12.4276C18.6303 12.401 18.5071 12.3762 18.3829 12.3575C18.0905 12.3127 17.9976 12.0889 17.9627 12.0044C17.804 11.6217 17.6707 11.3162 17.5438 11.0425C17.456 10.8537 17.4753 10.6762 17.6017 10.5146C17.7305 10.3497 17.8592 10.1782 17.9843 10.0128C18.0312 9.95024 18.0781 9.88811 18.1254 9.82551C18.2275 9.69097 18.3057 9.48542 18.1002 9.27286C17.6827 8.8412 17.238 8.38946 16.6587 7.80784C16.5861 7.73543 16.4987 7.69712 16.4058 7.69712C16.3323 7.69712 16.2569 7.72188 16.1888 7.76907C15.9677 7.92136 15.7171 8.09374 15.4775 8.27173C15.3731 8.34881 15.2674 8.38665 15.1543 8.38665C15.078 8.38665 15.0003 8.3689 14.917 8.33293C14.5828 8.18718 14.2343 8.04516 13.8513 7.89847C13.6614 7.82559 13.5528 7.69198 13.5193 7.49064C13.4761 7.2323 13.4255 6.95714 13.3597 6.62452C13.3101 6.37085 13.214 6.2891 12.9643 6.28816C12.6278 6.28676 12.2907 6.28583 11.9542 6.28583C11.5997 6.28583 11.2456 6.28676 10.8911 6.28816C10.6723 6.28863 10.5261 6.42411 10.4994 6.65021L10.4787 6.8254C10.4534 7.04497 10.4272 7.27201 10.3932 7.49671C10.3661 7.67657 10.213 7.84895 10.0447 7.89006C9.71822 7.96948 9.40234 8.10682 9.10486 8.29743C9.04417 8.3362 8.94991 8.38759 8.82761 8.38759C8.72094 8.38759 8.61841 8.34835 8.52323 8.2708C8.3223 8.10776 8.10804 7.94846 7.90114 7.79476L7.88367 7.78215C7.78619 7.70974 7.70343 7.67283 7.63722 7.67283C7.61055 7.67283 7.53009 7.67283 7.38801 7.81625C6.90937 8.29883 6.42384 8.79215 5.94428 9.28267C5.79485 9.4359 5.78198 9.6237 5.90934 9.79888C5.96819 9.8797 6.02796 9.96006 6.08773 10.0404C6.19027 10.1787 6.29602 10.3216 6.39809 10.4669C6.4758 10.5772 6.52637 10.7622 6.46476 10.9261C6.31487 11.3256 6.16084 11.7171 6.00727 12.0894C5.95394 12.2188 5.81462 12.3729 5.63438 12.4056C5.4238 12.444 5.19115 12.4767 4.9024 12.5089C4.58561 12.5444 4.49871 12.6416 4.49825 12.9611C4.49733 13.6357 4.49733 14.3177 4.49825 14.9877C4.49871 15.2567 4.62561 15.3964 4.8978 15.4277C5.16954 15.4585 5.41277 15.4927 5.64128 15.531C5.79255 15.5562 5.94106 15.6776 6.00267 15.8257C6.19073 16.2803 6.32958 16.6311 6.45327 16.9623C6.51212 17.1202 6.49419 17.3216 6.40867 17.4641C6.31211 17.6252 6.2082 17.7817 6.10796 17.9331C6.05417 18.0139 6.00038 18.0952 5.9475 18.177C5.82474 18.3676 5.83439 18.4736 5.9875 18.6315C6.43028 19.0861 6.90983 19.5733 7.45284 20.1204C7.53055 20.1988 7.62159 20.24 7.71538 20.24C7.79447 20.24 7.87585 20.2105 7.95034 20.1549L8.02804 20.097C8.21057 19.9611 8.39955 19.8204 8.57565 19.6761C8.6768 19.5929 8.78669 19.5509 8.90255 19.5509C9.00969 19.5509 9.09934 19.5878 9.15728 19.6154C9.30671 19.6873 9.46212 19.7574 9.61247 19.8256C9.77247 19.8975 9.93754 19.9727 10.1003 20.0507C10.2461 20.1208 10.3665 20.2797 10.3927 20.4366C10.4291 20.6543 10.4562 20.8739 10.4819 21.0864L10.4985 21.221C10.5311 21.4859 10.635 21.5807 10.8962 21.583C11.0272 21.5844 11.1578 21.5844 11.2889 21.5844C11.3914 21.5844 11.4939 21.5844 11.5965 21.5844C11.6994 21.5844 11.8029 21.584 11.9059 21.584H12.2277C12.2277 21.584 12.7937 21.5844 12.9206 21.584C13.2002 21.584 13.3335 21.4606 13.3671 21.1729C13.3947 20.9365 13.4259 20.6838 13.4678 20.4343C13.494 20.2783 13.6126 20.1241 13.7561 20.0592C13.929 19.9811 14.1051 19.905 14.2752 19.8316C14.4462 19.7583 14.6228 19.6822 14.7938 19.6046C14.8752 19.5677 14.9515 19.5495 15.0265 19.5495C15.1322 19.5495 15.2343 19.5855 15.3299 19.6551C15.5548 19.82 15.7828 19.9793 16.0559 20.168C16.1254 20.2157 16.2012 20.2409 16.2757 20.2409C16.3681 20.2409 16.455 20.203 16.5263 20.1311C16.9994 19.6574 17.4923 19.1566 17.9912 18.6432C18.1277 18.5026 18.1406 18.3241 18.0261 18.1536C17.8753 17.9284 17.6988 17.6673 17.5208 17.4141C17.404 17.2492 17.3893 17.0698 17.4762 16.8811C17.5535 16.7129 17.6298 16.5396 17.7038 16.3714C17.7746 16.2102 17.8482 16.0434 17.9236 15.879C17.9866 15.7416 18.1245 15.6281 18.2666 15.5973C18.4772 15.551 18.6901 15.5104 18.896 15.4716C18.9604 15.4595 19.0243 15.4473 19.0887 15.4347C19.4391 15.3675 19.4919 15.302 19.4919 14.9353C19.4919 14.7363 19.4901 14.5331 19.4882 14.3364C19.4832 13.8641 19.4786 13.3759 19.502 12.892C19.5126 12.6817 19.3935 12.5369 19.1839 12.5061V12.5056ZM17.2293 14.7835C16.9714 15.7071 16.6541 16.4251 16.2302 17.0427C16.1962 17.0927 16.1621 17.138 16.1258 17.1866C16.1102 17.2076 16.0946 17.2286 16.078 17.251L15.8339 17.5837L15.5727 17.2646C15.175 16.7787 14.7589 16.4162 14.3009 16.156C14.1805 16.0878 14.0531 16.0276 13.9188 15.9636C13.8227 15.9182 13.7239 15.8711 13.6255 15.8197C13.5643 15.7884 13.5069 15.7734 13.4443 15.7734C13.3818 15.7734 13.3151 15.7879 13.237 15.8169C12.9317 15.9294 12.5261 16.0584 12.0962 16.0584C11.9974 16.0584 11.8985 16.0518 11.8034 16.0383C11.4815 15.9934 11.179 15.9182 10.9054 15.8145C10.8217 15.7832 10.7675 15.7697 10.7252 15.7697C10.7058 15.7697 10.6746 15.772 10.6258 15.7921C9.98949 16.0546 9.54488 16.3172 9.18441 16.6437C9.04785 16.7671 8.91865 16.9044 8.78209 17.0502C8.7168 17.1193 8.65105 17.1899 8.583 17.2599L8.33426 17.5164L8.10666 17.2398C8.10252 17.2347 8.09747 17.2286 8.09149 17.2221C8.06988 17.1969 8.04045 17.1628 8.01149 17.1226C6.98984 15.7057 6.725 13.8721 7.30341 12.2174C7.88183 10.5618 9.22579 9.30696 10.8994 8.86129C11.3321 8.7459 11.7758 8.68751 12.2181 8.68751C14.7386 8.68751 16.8767 10.5174 17.3024 13.0387C17.4077 13.6604 17.3838 14.2313 17.2293 14.7835Z" fill="currentColor"/>
<path d="M19.1839 12.5056C19.039 12.4841 18.8974 12.4552 18.7604 12.4276C18.6303 12.401 18.5071 12.3762 18.3829 12.3575C18.0905 12.3127 17.9976 12.0889 17.9627 12.0044C17.804 11.6217 17.6707 11.3162 17.5438 11.0425C17.456 10.8537 17.4753 10.6762 17.6017 10.5146C17.7305 10.3497 17.8592 10.1782 17.9843 10.0128C18.0312 9.95024 18.0781 9.88811 18.1254 9.82551C18.2275 9.69097 18.3057 9.48542 18.1002 9.27286C17.6827 8.8412 17.238 8.38946 16.6587 7.80784C16.5861 7.73543 16.4987 7.69712 16.4058 7.69712C16.3323 7.69712 16.2569 7.72188 16.1888 7.76907C15.9677 7.92136 15.7171 8.09374 15.4775 8.27173C15.3731 8.34881 15.2674 8.38665 15.1543 8.38665C15.078 8.38665 15.0003 8.3689 14.917 8.33293C14.5828 8.18718 14.2343 8.04516 13.8513 7.89847C13.6614 7.82559 13.5528 7.69198 13.5193 7.49064C13.4761 7.2323 13.4255 6.95714 13.3597 6.62452C13.3101 6.37085 13.214 6.2891 12.9643 6.28816C12.6278 6.28676 12.2907 6.28583 11.9542 6.28583C11.5997 6.28583 11.2456 6.28676 10.8911 6.28816C10.6723 6.28863 10.5261 6.42411 10.4994 6.65021L10.4787 6.8254C10.4534 7.04497 10.4272 7.27201 10.3932 7.49671C10.3661 7.67657 10.213 7.84895 10.0447 7.89006C9.71822 7.96948 9.40234 8.10682 9.10486 8.29743C9.04417 8.3362 8.94991 8.38759 8.82761 8.38759C8.72094 8.38759 8.61841 8.34835 8.52323 8.2708C8.3223 8.10776 8.10804 7.94846 7.90114 7.79476L7.88367 7.78215C7.78619 7.70974 7.70343 7.67283 7.63722 7.67283C7.61055 7.67283 7.53009 7.67283 7.38801 7.81625C6.90937 8.29883 6.42384 8.79215 5.94428 9.28267C5.79485 9.4359 5.78198 9.6237 5.90934 9.79888C5.96819 9.8797 6.02796 9.96006 6.08773 10.0404C6.19027 10.1787 6.29602 10.3216 6.39809 10.4669C6.4758 10.5772 6.52637 10.7622 6.46476 10.9261C6.31487 11.3256 6.16084 11.7171 6.00727 12.0894C5.95394 12.2188 5.81462 12.3729 5.63438 12.4056C5.4238 12.444 5.19115 12.4767 4.9024 12.5089C4.58561 12.5444 4.49871 12.6416 4.49825 12.9611C4.49733 13.6357 4.49733 14.3177 4.49825 14.9877C4.49871 15.2567 4.62561 15.3964 4.8978 15.4277C5.16954 15.4585 5.41277 15.4927 5.64128 15.531C5.79255 15.5562 5.94106 15.6776 6.00267 15.8257C6.19073 16.2803 6.32958 16.6311 6.45327 16.9623C6.51212 17.1202 6.49419 17.3216 6.40867 17.4641C6.31211 17.6252 6.2082 17.7817 6.10796 17.9331C6.05417 18.0139 6.00038 18.0952 5.9475 18.177C5.82474 18.3676 5.83439 18.4736 5.9875 18.6315C6.43028 19.0861 6.90983 19.5733 7.45284 20.1204C7.53055 20.1988 7.62159 20.24 7.71538 20.24C7.79447 20.24 7.87585 20.2105 7.95034 20.1549L8.02804 20.097C8.21057 19.9611 8.39955 19.8204 8.57565 19.6761C8.6768 19.5929 8.78669 19.5509 8.90255 19.5509C9.00969 19.5509 9.09934 19.5878 9.15728 19.6154C9.30671 19.6873 9.46212 19.7574 9.61247 19.8256C9.77247 19.8975 9.93754 19.9727 10.1003 20.0507C10.2461 20.1208 10.3665 20.2797 10.3927 20.4366C10.4291 20.6543 10.4562 20.8739 10.4819 21.0864L10.4985 21.221C10.5311 21.4859 10.635 21.5807 10.8962 21.583C11.0272 21.5844 11.1578 21.5844 11.2889 21.5844C11.3914 21.5844 11.4939 21.5844 11.5965 21.5844C11.6994 21.5844 11.8029 21.584 11.9059 21.584H12.2277C12.2277 21.584 12.7937 21.5844 12.9206 21.584C13.2002 21.584 13.3335 21.4606 13.3671 21.1729C13.3947 20.9365 13.4259 20.6838 13.4678 20.4343C13.494 20.2783 13.6126 20.1241 13.7561 20.0592C13.929 19.9811 14.1051 19.905 14.2752 19.8316C14.4462 19.7583 14.6228 19.6822 14.7938 19.6046C14.8752 19.5677 14.9515 19.5495 15.0265 19.5495C15.1322 19.5495 15.2343 19.5855 15.3299 19.6551C15.5548 19.82 15.7828 19.9793 16.0559 20.168C16.1254 20.2157 16.2012 20.2409 16.2757 20.2409C16.3681 20.2409 16.455 20.203 16.5263 20.1311C16.9994 19.6574 17.4923 19.1566 17.9912 18.6432C18.1277 18.5026 18.1406 18.3241 18.0261 18.1536C17.8753 17.9284 17.6988 17.6673 17.5208 17.4141C17.404 17.2492 17.3893 17.0698 17.4762 16.8811C17.5535 16.7129 17.6298 16.5396 17.7038 16.3714C17.7746 16.2102 17.8482 16.0434 17.9236 15.879C17.9866 15.7416 18.1245 15.6281 18.2666 15.5973C18.4772 15.551 18.6901 15.5104 18.896 15.4716C18.9604 15.4595 19.0243 15.4473 19.0887 15.4347C19.4391 15.3675 19.4919 15.302 19.4919 14.9353C19.4919 14.7363 19.4901 14.5331 19.4882 14.3364C19.4832 13.8641 19.4786 13.3759 19.502 12.892C19.5126 12.6817 19.3935 12.5369 19.1839 12.5061V12.5056ZM17.2293 14.7835C16.9714 15.7071 16.6541 16.4251 16.2302 17.0427C16.1962 17.0927 16.1621 17.138 16.1258 17.1866C16.1102 17.2076 16.0946 17.2286 16.078 17.251L15.8339 17.5837L15.5727 17.2646C15.175 16.7787 14.7589 16.4162 14.3009 16.156C14.1805 16.0878 14.0531 16.0276 13.9188 15.9636C13.8227 15.9182 13.7239 15.8711 13.6255 15.8197C13.5643 15.7884 13.5069 15.7734 13.4443 15.7734C13.3818 15.7734 13.3151 15.7879 13.237 15.8169C12.9317 15.9294 12.5261 16.0584 12.0962 16.0584C11.9974 16.0584 11.8985 16.0518 11.8034 16.0383C11.4815 15.9934 11.179 15.9182 10.9054 15.8145C10.8217 15.7832 10.7675 15.7697 10.7252 15.7697C10.7058 15.7697 10.6746 15.772 10.6258 15.7921C9.98949 16.0546 9.54488 16.3172 9.18441 16.6437C9.04785 16.7671 8.91865 16.9044 8.78209 17.0502C8.7168 17.1193 8.65105 17.1899 8.583 17.2599L8.33426 17.5164L8.10666 17.2398C8.10252 17.2347 8.09747 17.2286 8.09149 17.2221C8.06988 17.1969 8.04045 17.1628 8.01149 17.1226C6.98984 15.7057 6.725 13.8721 7.30341 12.2174C7.88183 10.5618 9.22579 9.30696 10.8994 8.86129C11.3321 8.7459 11.7758 8.68751 12.2181 8.68751C14.7386 8.68751 16.8767 10.5174 17.3024 13.0387C17.4077 13.6604 17.3838 14.2313 17.2293 14.7835Z" fill="currentColor"/>
<path d="M13.6657 12.6766C13.662 13.5937 12.9277 14.3397 12.0284 14.3397H12.0247C11.5736 14.3383 11.1589 14.1673 10.8559 13.8576C10.5538 13.5488 10.3883 13.1265 10.3902 12.6691C10.3934 11.7544 11.129 11.0103 12.0298 11.0103C12.484 11.0107 12.8997 11.1808 13.2013 11.4886C13.5025 11.7965 13.6675 12.2183 13.6657 12.6766Z" fill="currentColor"/>
<path d="M13.6657 12.6766C13.662 13.5937 12.9277 14.3397 12.0284 14.3397H12.0247C11.5736 14.3383 11.1589 14.1673 10.8559 13.8576C10.5538 13.5488 10.3883 13.1265 10.3902 12.6691C10.3934 11.7544 11.129 11.0103 12.0298 11.0103C12.484 11.0107 12.8997 11.1808 13.2013 11.4886C13.5025 11.7965 13.6675 12.2183 13.6657 12.6766Z" fill="currentColor"/>
</g>
<defs>
<clipPath id="clip0_1549_10978">
<rect width="24" height="29" fill="white" transform="translate(0 0.335571)"/>
</clipPath>
</defs>
</svg>
