<svg width="20" height="26" viewBox="0 0 20 26" fill="none" xmlns="http://www.w3.org/2000/svg">
<path d="M11.9832 19.9477H7.96477C7.57217 19.9477 7.25391 20.266 7.25391 20.6586V24.677C7.25391 25.0696 7.57217 25.3878 7.96477 25.3878H11.9832C12.3757 25.3878 12.694 25.0696 12.694 24.677V20.6586C12.694 20.266 12.3757 19.9477 11.9832 19.9477Z" fill="currentColor"/>
<path d="M10.8799 0C11.9533 0.0781945 12.7678 0.606261 13.3689 1.50804C14.0524 2.52964 14.2809 3.70865 14.4352 4.92118C14.6302 6.52365 14.4027 8.08348 14.029 9.63417C13.3508 12.4194 12.4669 15.1505 11.3846 17.805C11.2861 18.0386 11.1886 18.2213 10.8799 18.0903V0ZM9.06723 0V18.0863C8.82554 18.1899 8.68845 18.1289 8.59096 17.869C7.34187 14.5157 6.18927 11.127 5.57691 7.56557C5.27023 5.77116 5.48755 3.99503 6.15677 2.31334C6.62391 1.16987 7.38249 0.355429 8.55135 0.0609308C8.63259 0.043667 8.71282 0.0264033 8.78492 0.0172637C8.86616 0.0101551 8.94639 0.0101551 9.06723 0Z" fill="currentColor"/>
<path d="M12.6941 18.0558C13.0962 16.9946 13.5258 15.9415 13.9015 14.8813C14.7241 12.566 15.5111 10.2425 15.896 7.81336C16.2108 5.85748 16.0798 3.928 15.3456 2.07774C15.0562 1.35063 14.5829 0.69258 14.1899 0C15.4502 0.236615 16.684 0.69258 17.7686 1.51718C19.5711 2.87593 20.6303 5.7346 19.4483 8.38306C18.3718 10.803 16.9196 12.9864 15.3537 15.0915C14.6804 15.9953 13.9543 16.8453 13.2364 17.7136C13.1044 17.871 12.9307 17.9939 12.7723 18.134C12.742 18.1122 12.7155 18.0854 12.6941 18.0548V18.0558ZM7.14939 18.134C7.03667 18.0375 6.90567 17.9512 6.81021 17.8365C4.49484 15.0164 2.38664 12.048 0.758771 8.77403C-0.468984 6.3043 -0.189717 3.98386 1.47268 2.17117C2.47397 1.0866 3.76266 0.507756 5.16407 0.14928C5.36412 0.0964737 5.57332 0.0609308 5.87797 0C4.15465 1.91729 3.7982 4.1768 3.92006 6.51452C3.99013 7.79305 4.28565 9.08884 4.66037 10.3227C5.43521 12.8452 6.33191 15.3231 7.17681 17.8192L7.25501 18.0548L7.14939 18.134Z" fill="currentColor"/>
</svg>
