<svg width="27" height="28" viewBox="0 0 27 28" fill="currentColor" xmlns="http://www.w3.org/2000/svg">
<g id="Frame">
<path id="Vector" d="M23.6196 8.15031C23.5814 7.76556 23.3485 7.42806 23.0031 7.25593L14.0031 2.75593C13.687 2.59731 13.3135 2.59731 12.9962 2.75593L3.99624 7.25593C3.65199 7.42918 3.41912 7.76668 3.38087 8.15031C3.36849 8.27068 2.29974 20.2632 13.0435 25.0411C13.1886 25.1063 13.3439 25.1378 13.5002 25.1378C13.6566 25.1378 13.8119 25.1063 13.957 25.0411C24.7007 20.2632 23.632 8.27181 23.6196 8.15031ZM13.5002 22.7719C5.88512 19.0909 5.52512 11.2351 5.58699 8.97718L13.5002 5.02056L21.4079 8.97493C21.4495 11.2126 21.0389 19.1202 13.5002 22.7719Z" fill="currentColor"/>
<path id="Vector_2" d="M12.375 14.5471L9.79534 11.9675L8.20459 13.5582L12.375 17.7286L18.7953 11.3082L17.2046 9.71747L12.375 14.5471Z" fill="currentColor"/>
</g>
</svg>
