<svg width="28" height="28" viewBox="0 0 28 28" fill="none" xmlns="http://www.w3.org/2000/svg">
<path id="Vector" d="M19.3947 16.2283L22.5645 19.397L13.986 27.9755L5.40867 19.3982L8.5785 16.2283L13.9872 21.665L19.3947 16.2283ZM24.8045 10.8197L28 13.9883L24.8325 17.157L21.6627 13.9883L24.8045 10.8197ZM13.9872 10.8197L17.1558 13.9603L13.986 17.1302L10.8173 13.9883L13.986 10.8208L13.9872 10.8197ZM3.16867 10.8197L6.31167 13.9883L3.171 17.129L0 13.9883L3.16867 10.8197ZM13.9883 0L22.5657 8.55167L19.3958 11.7192L13.9872 6.3105L8.57967 11.7472L5.40983 8.5785L13.9872 0.00116667L13.9883 0Z" fill="#090909"/>
</svg>
