<svg width="52" height="52" viewBox="0 0 52 52" fill="none" xmlns="http://www.w3.org/2000/svg">
<g id="material-symbols:branding-watermark-outline-rounded">
<path id="Vector" d="M23.8333 36.8334H38.9999C39.6138 36.8334 40.1288 36.6254 40.5448 36.2094C40.9608 35.7934 41.168 35.2792 41.1666 34.6668V26.0001C41.1666 25.3862 40.9586 24.8713 40.5426 24.4553C40.1266 24.0393 39.6124 23.832 38.9999 23.8334H23.8333C23.2194 23.8334 22.7044 24.0414 22.2884 24.4574C21.8724 24.8734 21.6651 25.3876 21.6666 26.0001V34.6668C21.6666 35.2806 21.8746 35.7956 22.2906 36.2116C22.7066 36.6276 23.2208 36.8349 23.8333 36.8334ZM8.66659 43.3334C7.47492 43.3334 6.45442 42.9088 5.60509 42.0594C4.75576 41.2101 4.33181 40.1903 4.33326 39.0001V13.0001C4.33326 11.8084 4.75792 10.7879 5.60726 9.93858C6.45659 9.08925 7.47637 8.66531 8.66659 8.66675H43.3333C44.5249 8.66675 45.5454 9.09142 46.3948 9.94075C47.2441 10.7901 47.668 11.8099 47.6666 13.0001V39.0001C47.6666 40.1918 47.2419 41.2123 46.3926 42.0616C45.5433 42.9109 44.5235 43.3349 43.3333 43.3334H8.66659ZM8.66659 39.0001H43.3333V13.0001H8.66659V39.0001Z" fill="#77EB67"/>
</g>
</svg>
