<svg width="53" height="53" viewBox="0 0 53 53" fill="none" xmlns="http://www.w3.org/2000/svg">
<g id="fluent:people-community-24-regular">
<path id="Vector" d="M16.5626 7.72925C15.6841 7.72925 14.8415 8.07824 14.2203 8.69946C13.5991 9.32067 13.2501 10.1632 13.2501 11.0417C13.2501 11.9203 13.5991 12.7628 14.2203 13.384C14.8415 14.0053 15.6841 14.3542 16.5626 14.3542C17.4411 14.3542 18.2837 14.0053 18.9049 13.384C19.5261 12.7628 19.8751 11.9203 19.8751 11.0417C19.8751 10.1632 19.5261 9.32067 18.9049 8.69946C18.2837 8.07824 17.4411 7.72925 16.5626 7.72925ZM9.93758 11.0417C9.93758 9.28469 10.6356 7.59959 11.878 6.35717C13.1204 5.11474 14.8055 4.41675 16.5626 4.41675C18.3196 4.41675 20.0047 5.11474 21.2472 6.35717C22.4896 7.59959 23.1876 9.28469 23.1876 11.0417C23.1876 12.7988 22.4896 14.4839 21.2472 15.7263C20.0047 16.9688 18.3196 17.6667 16.5626 17.6667C14.8055 17.6667 13.1204 16.9688 11.878 15.7263C10.6356 14.4839 9.93758 12.7988 9.93758 11.0417ZM8.32108 19.8751C6.16133 19.8751 4.41675 21.6219 4.41675 23.7794V24.5744C4.41675 25.0315 4.41675 27.6837 5.96258 30.2609C7.17275 32.2705 9.22429 34.0747 12.5324 34.8829C12.9854 33.6785 13.8059 32.6471 14.8776 31.9348C11.3377 31.5572 9.66375 29.9848 8.80471 28.556C7.73587 26.7761 7.72925 24.8814 7.72925 24.5678V23.7794C7.72925 23.4526 7.99425 23.1876 8.32108 23.1876H17.733C17.8789 22.0198 18.2581 20.8933 18.8482 19.8751H8.32108ZM34.152 19.8751C34.7283 20.8732 35.117 21.9929 35.265 23.1876H44.6791C45.0059 23.1876 45.2709 23.4526 45.2709 23.7794V24.5678C45.2709 24.8814 45.2643 26.7761 44.1955 28.5538C43.3364 29.9848 41.6625 31.5572 38.1225 31.9348C39.1825 32.6415 40.0129 33.6705 40.4678 34.8829C43.7759 34.0747 45.8274 32.2705 47.0354 30.2609C48.5834 27.6837 48.5834 25.0337 48.5834 24.5722V23.7772C48.5834 21.6241 46.8366 19.8751 44.6791 19.8751H34.152ZM33.1251 11.0417C33.1251 10.1632 33.4741 9.32067 34.0953 8.69946C34.7165 8.07824 35.5591 7.72925 36.4376 7.72925C37.3161 7.72925 38.1587 8.07824 38.7799 8.69946C39.4011 9.32067 39.7501 10.1632 39.7501 11.0417C39.7501 11.9203 39.4011 12.7628 38.7799 13.384C38.1587 14.0053 37.3161 14.3542 36.4376 14.3542C35.5591 14.3542 34.7165 14.0053 34.0953 13.384C33.4741 12.7628 33.1251 11.9203 33.1251 11.0417ZM36.4376 4.41675C34.6805 4.41675 32.9954 5.11474 31.753 6.35717C30.5106 7.59959 29.8126 9.28469 29.8126 11.0417C29.8126 12.7988 30.5106 14.4839 31.753 15.7263C32.9954 16.9688 34.6805 17.6667 36.4376 17.6667C38.1946 17.6667 39.8797 16.9688 41.1222 15.7263C42.3646 14.4839 43.0626 12.7988 43.0626 11.0417C43.0626 9.28469 42.3646 7.59959 41.1222 6.35717C39.8797 5.11474 38.1946 4.41675 36.4376 4.41675ZM26.5001 20.9792C26.0651 20.9792 25.6343 21.0649 25.2324 21.2314C24.8306 21.3979 24.4654 21.6419 24.1578 21.9495C23.8502 22.257 23.6062 22.6222 23.4397 23.0241C23.2733 23.426 23.1876 23.8567 23.1876 24.2917C23.1876 24.7268 23.2733 25.1575 23.4397 25.5594C23.6062 25.9613 23.8502 26.3264 24.1578 26.634C24.4654 26.9416 24.8306 27.1856 25.2324 27.3521C25.6343 27.5186 26.0651 27.6042 26.5001 27.6042C27.3786 27.6042 28.2212 27.2553 28.8424 26.634C29.4636 26.0128 29.8126 25.1703 29.8126 24.2917C29.8126 23.4132 29.4636 22.5707 28.8424 21.9495C28.2212 21.3282 27.3786 20.9792 26.5001 20.9792ZM19.8751 24.2917C19.8751 22.5347 20.5731 20.8496 21.8155 19.6072C23.0579 18.3647 24.743 17.6667 26.5001 17.6667C28.2571 17.6667 29.9422 18.3647 31.1847 19.6072C32.4271 20.8496 33.1251 22.5347 33.1251 24.2917C33.1251 26.0488 32.4271 27.7339 31.1847 28.9763C29.9422 30.2188 28.2571 30.9167 26.5001 30.9167C24.743 30.9167 23.0579 30.2188 21.8155 28.9763C20.5731 27.7339 19.8751 26.0488 19.8751 24.2917ZM14.3542 37.0294C14.3542 34.8697 16.101 33.1251 18.2586 33.1251H34.7416C36.8991 33.1251 38.6459 34.8719 38.6459 37.0294V37.8244C38.6459 38.2815 38.6459 40.9337 37.1001 43.5109C35.4593 46.236 32.2705 48.5834 26.5001 48.5834C20.7297 48.5834 17.5387 46.236 15.9001 43.5109C14.3542 40.9337 14.3542 38.2837 14.3542 37.8222V37.0294ZM18.2586 36.4376C18.1809 36.4376 18.1039 36.4529 18.0321 36.4826C17.9603 36.5124 17.895 36.556 17.8401 36.6109C17.7851 36.6659 17.7415 36.7311 17.7118 36.8029C17.6821 36.8747 17.6667 36.9517 17.6667 37.0294V37.8178C17.6667 38.1314 17.6734 40.0261 18.7422 41.8038C19.7271 43.4446 21.7831 45.2709 26.5001 45.2709C31.2171 45.2709 33.273 43.4446 34.258 41.8038C35.3268 40.0261 35.3334 38.1314 35.3334 37.8178V37.0294C35.3334 36.8724 35.2711 36.7219 35.1601 36.6109C35.0491 36.4999 34.8985 36.4376 34.7416 36.4376H18.2586Z" fill="#0FD7D2"/>
</g>
</svg>
