<svg width="16" height="16" viewBox="0 0 16 16" fill="none" xmlns="http://www.w3.org/2000/svg">
<g id="bxs:copy">
<path id="Vector" d="M9.33398 5.33325H2.66732C1.93198 5.33325 1.33398 5.93125 1.33398 6.66659V13.3333C1.33398 14.0686 1.93198 14.6666 2.66732 14.6666H9.33398C10.0693 14.6666 10.6673 14.0686 10.6673 13.3333V6.66659C10.6673 5.93125 10.0693 5.33325 9.33398 5.33325Z" fill="#22CDA6"/>
<path id="Vector_2" d="M13.334 1.33325H6.66732C6.3137 1.33325 5.97456 1.47373 5.72451 1.72378C5.47446 1.97382 5.33398 2.31296 5.33398 2.66659V3.99992H10.6673C11.0209 3.99992 11.3601 4.14039 11.6101 4.39044C11.8602 4.64049 12.0007 4.97963 12.0007 5.33325V10.6666H13.334C13.6876 10.6666 14.0267 10.5261 14.2768 10.2761C14.5268 10.026 14.6673 9.68687 14.6673 9.33325V2.66659C14.6673 2.31296 14.5268 1.97382 14.2768 1.72378C14.0267 1.47373 13.6876 1.33325 13.334 1.33325Z" fill="#22CDA6"/>
</g>
</svg>
