<svg width="25" height="25" viewBox="0 0 25 25" fill="currentColor" xmlns="http://www.w3.org/2000/svg">
<g clip-path="url(#clip0_117_193)">
<path d="M9.09091 3.40909C4.06818 3.40909 0 7.47727 0 12.5C0 17.5227 4.06818 21.5909 9.09091 21.5909C14.1136 21.5909 18.1818 17.5227 18.1818 12.5C18.1818 7.47727 14.1136 3.40909 9.09091 3.40909ZM9.09091 19.3182C5.32955 19.3182 2.27273 16.2614 2.27273 12.5C2.27273 8.73864 5.32955 5.68182 9.09091 5.68182C12.8523 5.68182 15.9091 8.73864 15.9091 12.5C15.9091 16.2614 12.8523 19.3182 9.09091 19.3182ZM12.5 10.7955H10.2273V16.4773H7.95455V10.7955H5.68182V9.09091H12.5V10.7955ZM21.875 3.125L25 4.54545L21.875 5.96591L20.4545 9.09091L19.0341 5.96591L15.9091 4.54545L19.0341 3.125L20.4545 0L21.875 3.125ZM21.875 19.0341L25 20.4545L21.875 21.875L20.4545 25L19.0341 21.875L15.9091 20.4545L19.0341 19.0341L20.4545 15.9091L21.875 19.0341Z" fill="currentColor"/>
</g>
<defs>
<clipPath id="clip0_117_193">
<rect width="25" height="25" fill="currentColor"/>
</clipPath>
</defs>
</svg>
