<svg width="54" height="54" viewBox="0 0 54 54" fill="none" xmlns="http://www.w3.org/2000/svg">
<g id="ant-design:setting-outlined">
<path id="Vector" d="M48.7688 32.9959L45.3147 30.0428C45.4782 29.0408 45.5626 28.0177 45.5626 26.9947C45.5626 25.9717 45.4782 24.9486 45.3147 23.9467L48.7688 20.9935C49.0293 20.7705 49.2158 20.4734 49.3034 20.1419C49.391 19.8103 49.3756 19.4599 49.2592 19.1373L49.2118 19.0002C48.2609 16.3425 46.837 13.8788 45.0089 11.7281L44.9139 11.6174C44.6922 11.3566 44.3966 11.1692 44.0662 11.0797C43.7357 10.9903 43.386 11.0031 43.063 11.1164L38.7756 12.6404C37.1936 11.3431 35.427 10.3201 33.518 9.60291L32.6901 5.12048C32.6276 4.78321 32.464 4.47292 32.221 4.23084C31.978 3.98877 31.6671 3.82636 31.3296 3.76521L31.1872 3.73884C28.4397 3.24314 25.5499 3.24314 22.8024 3.73884L22.66 3.76521C22.3225 3.82636 22.0116 3.98877 21.7686 4.23084C21.5255 4.47292 21.3619 4.78321 21.2995 5.12048L20.4663 9.624C18.5725 10.3413 16.809 11.3638 15.2456 12.651L10.9266 11.1164C10.6037 11.0022 10.2537 10.9889 9.92306 11.0784C9.59244 11.1679 9.29688 11.3559 9.07565 11.6174L8.98072 11.7281C7.15478 13.8803 5.7311 16.3436 4.77779 19.0002L4.73033 19.1373C4.49303 19.7965 4.68815 20.5347 5.22076 20.9935L8.71705 23.9783C8.55358 24.9697 8.47447 25.9822 8.47447 26.9894C8.47447 28.0019 8.55358 29.0144 8.71705 30.0006L5.22076 32.9853C4.96023 33.2084 4.77377 33.5054 4.68616 33.837C4.59856 34.1686 4.61396 34.519 4.73033 34.8416L4.77779 34.9787C5.73229 37.6365 7.14557 40.0887 8.98072 42.2508L9.07565 42.3615C9.29742 42.6223 9.59299 42.8097 9.92342 42.8991C10.2538 42.9886 10.6036 42.9758 10.9266 42.8625L15.2456 41.3279C16.8171 42.6199 18.5731 43.6429 20.4663 44.3549L21.2995 48.8584C21.3619 49.1957 21.5255 49.5059 21.7686 49.748C22.0116 49.9901 22.3225 50.1525 22.66 50.2137L22.8024 50.24C25.5751 50.7384 28.4145 50.7384 31.1872 50.24L31.3296 50.2137C31.6671 50.1525 31.978 49.9901 32.221 49.748C32.464 49.5059 32.6276 49.1957 32.6901 48.8584L33.518 44.376C35.4262 43.6607 37.2028 42.6343 38.7756 41.3385L43.063 42.8625C43.3859 42.9767 43.7359 42.9899 44.0665 42.9004C44.3971 42.811 44.6927 42.623 44.9139 42.3615L45.0089 42.2508C46.844 40.0834 48.2573 37.6365 49.2118 34.9787L49.2592 34.8416C49.4965 34.1929 49.3014 33.4547 48.7688 32.9959ZM41.5706 24.5689C41.7024 25.3652 41.771 26.1826 41.771 27C41.771 27.8174 41.7024 28.6347 41.5706 29.431L41.2225 31.5457L45.1618 34.9154C44.5646 36.2912 43.8108 37.5935 42.9153 38.7967L38.0215 37.0617L36.3657 38.4222C35.1053 39.4558 33.7026 40.2679 32.1838 40.8375L30.1747 41.5916L29.2307 46.7068C27.7413 46.8756 26.2377 46.8756 24.7483 46.7068L23.8044 41.581L21.811 40.8164C20.3081 40.2469 18.9106 39.4347 17.6608 38.4064L16.0049 37.0406L11.0796 38.7914C10.1831 37.5838 9.43424 36.2812 8.83307 34.9101L12.8145 31.5088L12.4717 29.3994C12.3452 28.6136 12.2766 27.8015 12.2766 27C12.2766 26.1931 12.3399 25.3863 12.4717 24.6006L12.8145 22.4912L8.83307 19.0898C9.42897 17.7135 10.1831 16.4162 11.0796 15.2086L16.0049 16.9594L17.6608 15.5935C18.9106 14.5652 20.3081 13.7531 21.811 13.1836L23.8096 12.4295L24.7536 7.30369C26.2354 7.13494 27.7489 7.13494 29.236 7.30369L30.1799 12.4189L32.1891 13.173C33.7026 13.7426 35.1106 14.5547 36.371 15.5883L38.0268 16.9488L42.9206 15.2138C43.8171 16.4215 44.5659 17.724 45.1671 19.0951L41.2278 22.4648L41.5706 24.5689ZM27.0001 17.1914C21.8743 17.1914 17.7188 21.3469 17.7188 26.4726C17.7188 31.5984 21.8743 35.7539 27.0001 35.7539C32.1258 35.7539 36.2813 31.5984 36.2813 26.4726C36.2813 21.3469 32.1258 17.1914 27.0001 17.1914ZM31.1766 30.6492C30.6288 31.1986 29.9778 31.6342 29.261 31.9311C28.5443 32.2279 27.7759 32.3801 27.0001 32.3789C25.4233 32.3789 23.9415 31.7619 22.8235 30.6492C22.2741 30.1014 21.8385 29.4504 21.5416 28.7336C21.2448 28.0168 21.0926 27.2484 21.0938 26.4726C21.0938 24.8959 21.7108 23.414 22.8235 22.2961C23.9415 21.1781 25.4233 20.5664 27.0001 20.5664C28.5768 20.5664 30.0587 21.1781 31.1766 22.2961C31.726 22.8439 32.1616 23.4949 32.4585 24.2117C32.7553 24.9284 32.9075 25.6968 32.9063 26.4726C32.9063 28.0494 32.2893 29.5312 31.1766 30.6492Z" fill="#11B6DB"/>
</g>
</svg>
