<svg width="52" height="52" viewBox="0 0 52 52" fill="none" xmlns="http://www.w3.org/2000/svg">
<g id="mdi:charity-outline">
<path id="Vector" d="M34.6667 4.33337C28.6867 4.33337 23.8334 9.18671 23.8334 15.1667C23.8334 21.1467 28.6867 26 34.6667 26C40.6467 26 45.5001 21.1467 45.5001 15.1667C45.5001 9.18671 40.6467 4.33337 34.6667 4.33337ZM34.6667 21.6667C31.0701 21.6667 28.1667 18.7634 28.1667 15.1667C28.1667 11.57 31.0701 8.66671 34.6667 8.66671C38.2634 8.66671 41.1667 11.57 41.1667 15.1667C41.1667 18.7634 38.2634 21.6667 34.6667 21.6667ZM41.1667 34.6667H36.8334C36.8334 32.0667 35.2084 29.7267 32.7817 28.8167L19.4351 23.8334H2.16675V47.6667H15.1667V44.5467L30.3334 48.75L47.6667 43.3334V41.1667C47.6667 37.57 44.7634 34.6667 41.1667 34.6667ZM10.8334 43.3334H6.50008V28.1667H10.8334V43.3334ZM30.2684 44.2217L15.1667 40.0834V28.1667H18.6551L31.2651 32.8684C32.0017 33.15 32.5001 33.865 32.5001 34.6667C32.5001 34.6667 28.1667 34.5584 27.5167 34.3417L22.3601 32.63L20.9951 36.7467L26.1517 38.4584C27.2567 38.8267 28.4051 39 29.5751 39H41.1667C42.0117 39 42.7701 39.52 43.1167 40.235L30.2684 44.2217Z" fill="#0FD7D2"/>
</g>
</svg>
