<svg width="25" height="25" viewBox="0 0 25 25" fill="none" xmlns="http://www.w3.org/2000/svg">
<g id="Frame">
<path id="Vector" d="M17.672 6.41009C17.6665 6.39974 17.6574 6.39162 17.6463 6.3872C16.3607 5.81501 15.0041 5.40699 13.6104 5.17336C13.5977 5.17108 13.5847 5.17273 13.573 5.17807C13.5614 5.18342 13.5518 5.19219 13.5456 5.20313C13.3608 5.52839 13.1931 5.86248 13.0431 6.20414C11.5408 5.9829 10.0126 5.9829 8.51021 6.20414C8.3592 5.86161 8.18882 5.52744 7.99985 5.20313C7.99337 5.19242 7.98371 5.18386 7.97214 5.17855C7.96057 5.17324 7.94762 5.17143 7.93497 5.17336C6.54109 5.4065 5.1844 5.81455 3.89903 6.38723C3.88803 6.39175 3.87875 6.39948 3.87246 6.40934C1.30198 10.1333 0.597832 13.7656 0.943264 17.353C0.944236 17.3618 0.94702 17.3703 0.951452 17.3781C0.955884 17.3858 0.961872 17.3926 0.96906 17.398C2.46583 18.4731 4.13998 19.2938 5.92007 19.8249C5.93261 19.8286 5.94599 19.8284 5.95843 19.8245C5.97087 19.8205 5.98176 19.8129 5.98964 19.8028C6.37196 19.2981 6.71073 18.7637 7.0025 18.2051C7.00651 18.1974 7.0088 18.189 7.00921 18.1804C7.00963 18.1718 7.00817 18.1632 7.00492 18.1552C7.00168 18.1472 6.99672 18.14 6.99038 18.134C6.98404 18.128 6.97646 18.1234 6.96814 18.1204C6.43392 17.9221 5.91674 17.6831 5.42145 17.4055C5.41245 17.4004 5.40489 17.3932 5.39944 17.3846C5.394 17.3759 5.39082 17.3661 5.39021 17.356C5.38959 17.3459 5.39155 17.3358 5.39591 17.3266C5.40027 17.3174 5.4069 17.3094 5.41521 17.3033C5.51913 17.2277 5.62313 17.1492 5.72237 17.0698C5.73118 17.0628 5.74185 17.0582 5.75317 17.0568C5.76449 17.0553 5.77601 17.0569 5.78644 17.0614C9.03133 18.4981 12.5444 18.4981 15.7508 17.0614C15.7613 17.0566 15.7729 17.0548 15.7844 17.0561C15.7959 17.0575 15.8068 17.062 15.8157 17.0691C15.915 17.1484 16.019 17.2277 16.1237 17.3033C16.132 17.3093 16.1387 17.3173 16.1431 17.3265C16.1476 17.3356 16.1496 17.3457 16.149 17.3558C16.1485 17.3659 16.1454 17.3757 16.14 17.3844C16.1346 17.3931 16.1271 17.4003 16.1182 17.4055C15.624 17.6854 15.1064 17.9243 14.5708 18.1196C14.5624 18.1227 14.5549 18.1275 14.5486 18.1336C14.5423 18.1397 14.5374 18.147 14.5342 18.155C14.531 18.1631 14.5296 18.1717 14.5301 18.1803C14.5306 18.189 14.533 18.1974 14.537 18.2051C14.8337 18.7606 15.172 19.2944 15.5491 19.8019C15.5568 19.8123 15.5676 19.8201 15.5801 19.8243C15.5926 19.8284 15.6061 19.8286 15.6187 19.8248C17.402 19.2955 19.0791 18.4748 20.5777 17.398C20.585 17.3928 20.5911 17.3862 20.5955 17.3786C20.6 17.371 20.6027 17.3625 20.6035 17.3538C21.017 13.2064 19.9111 9.60379 17.672 6.41009ZM7.48709 15.1687C6.51015 15.1687 5.70517 14.299 5.70517 13.2308C5.70517 12.1627 6.49453 11.2929 7.48709 11.2929C8.48741 11.2929 9.2846 12.1702 9.26899 13.2308C9.26899 14.299 8.47959 15.1687 7.48709 15.1687ZM14.0754 15.1687C13.0985 15.1687 12.2935 14.299 12.2935 13.2308C12.2935 12.1627 13.0829 11.2929 14.0754 11.2929C15.0758 11.2929 15.8729 12.1702 15.8573 13.2308C15.8573 14.299 15.0758 15.1687 14.0754 15.1687Z" fill="white"/>
</g>
</svg>
