<svg width="33" height="33" viewBox="0 0 33 33" fill="none" xmlns="http://www.w3.org/2000/svg">
<g id="noto:fire">
<path id="Vector" d="M9.16789 10.5007C9.02094 12.0682 8.91781 14.8423 9.84336 16.023C9.84336 16.023 9.40766 12.9757 13.3135 9.15234C14.8862 7.6132 15.2497 5.51976 14.7005 3.94968C14.3886 3.06023 13.8188 2.32547 13.3238 1.81242C13.0351 1.51078 13.2568 1.0132 13.677 1.03125C16.2191 1.14468 20.3389 1.85109 22.0895 6.24422C22.8577 8.17265 22.9145 10.1655 22.5484 12.192C22.3163 13.4862 21.4913 16.3634 23.3734 16.7166C24.7166 16.9692 25.3663 15.9019 25.6576 15.1336C25.7787 14.8139 26.199 14.734 26.4259 14.9892C28.6946 17.5699 28.888 20.6095 28.4188 23.2263C27.5113 28.2846 22.3885 31.9662 17.2993 31.9662C10.9416 31.9662 5.88078 28.3284 4.56852 21.7439C4.04 19.0859 4.30813 13.8265 8.40735 10.114C8.71156 9.83554 9.20914 10.083 9.16789 10.5007Z" fill="url(#paint0_radial_125_336)"/>
<path id="Vector_2" d="M19.6223 19.9598C17.2788 16.9434 18.3281 13.5016 18.903 12.1301C18.9803 11.9496 18.7741 11.7795 18.6117 11.8903C17.6036 12.5761 15.5385 14.19 14.5769 16.4613C13.2749 19.5319 13.3678 21.0349 14.1386 22.8705C14.6027 23.9766 14.0638 24.2112 13.7931 24.2524C13.5302 24.2937 13.2878 24.1184 13.0945 23.9353C12.5382 23.4013 12.1418 22.7228 11.9498 21.9759C11.9085 21.8161 11.6997 21.7723 11.6043 21.9037C10.8824 22.9015 10.5086 24.5025 10.4906 25.6343C10.4338 29.1328 13.3239 31.9687 16.8199 31.9687C21.2259 31.9687 24.4356 27.0961 21.9039 23.0227C21.1692 21.8367 20.4782 21.0607 19.6223 19.9598Z" fill="url(#paint1_radial_125_336)"/>
</g>
<defs>
<radialGradient id="paint0_radial_125_336" cx="0" cy="0" r="1" gradientUnits="userSpaceOnUse" gradientTransform="translate(16.0401 32.0463) rotate(-179.751) scale(18.1984 29.8599)">
<stop offset="0.314" stop-color="#FF9800"/>
<stop offset="0.662" stop-color="#FF6D00"/>
<stop offset="0.972" stop-color="#F44336"/>
</radialGradient>
<radialGradient id="paint1_radial_125_336" cx="0" cy="0" r="1" gradientUnits="userSpaceOnUse" gradientTransform="translate(17.0622 13.9369) rotate(90.5787) scale(19.0411 14.3299)">
<stop offset="0.214" stop-color="#FFF176"/>
<stop offset="0.328" stop-color="#FFF27D"/>
<stop offset="0.487" stop-color="#FFF48F"/>
<stop offset="0.672" stop-color="#FFF7AD"/>
<stop offset="0.793" stop-color="#FFF9C4"/>
<stop offset="0.822" stop-color="#FFF8BD" stop-opacity="0.804"/>
<stop offset="0.863" stop-color="#FFF6AB" stop-opacity="0.529"/>
<stop offset="0.91" stop-color="#FFF38D" stop-opacity="0.209"/>
<stop offset="0.941" stop-color="#FFF176" stop-opacity="0"/>
</radialGradient>
</defs>
</svg>
