<svg width="196" height="28" viewBox="0 0 190 35" fill="none" xmlns="http://www.w3.org/2000/svg">
<g clip-path="url(#clip0_565_18570)">
<path d="M11.7581 9.83646C14.0495 9.83646 15.9733 10.5875 17.652 12.2354L20.1551 9.83646C18.1385 7.58698 15.1488 6.42031 11.5761 6.42031C4.88744 6.41667 0 10.9448 0 17.2083C0 23.4719 4.88744 28 11.513 28C14.536 28 17.652 27.0995 19.8803 25.3313V16.9677H11.3755V20.6938H16.1256V23.501C14.7514 24.2813 13.2548 24.5802 11.7284 24.5802C7.2086 24.5802 4.00354 21.463 4.00354 17.2083C4.00354 12.9536 7.2086 9.83281 11.7581 9.83281V9.83646Z" fill="white"/>
<path d="M31.8242 11.5135C26.9702 11.5135 23.3975 14.9297 23.3975 19.6984C23.3975 24.4672 26.9405 27.9125 32.4073 27.9125C35.2187 27.9125 37.5064 27.012 38.9734 25.3057L36.9271 22.9979C35.7646 24.1682 34.3311 24.737 32.5001 24.737C29.659 24.737 27.6758 23.2385 27.219 20.9016H40.0133C40.043 20.5406 40.0727 20.0922 40.0727 19.7932C40.0727 14.7875 36.5928 11.5208 31.8279 11.5208L31.8242 11.5135ZM27.1819 18.4078C27.5496 16.0708 29.3508 14.5104 31.8242 14.5104C34.2976 14.5104 36.1286 16.1 36.4368 18.4078H27.1856H27.1819Z" fill="white"/>
<path d="M64.3168 11.5135C61.7208 11.5135 59.5222 12.5307 58.2112 14.1823C57.0822 12.3849 55.0953 11.5135 52.7147 11.5135C50.4864 11.5135 48.5923 12.2937 47.3704 13.7302V11.6922H43.7383V27.701H47.5561V19.5781C47.5561 16.4026 49.2645 14.7838 51.8011 14.7838C54.1222 14.7838 55.4667 16.162 55.4667 19.0094V27.7047H59.2845V19.5818C59.2845 16.4062 61.0263 14.7875 63.5294 14.7875C65.8506 14.7875 67.195 16.1656 67.195 19.013V27.7083H71.0129V18.5354C71.0129 13.7083 68.2646 11.5208 64.3242 11.5208L64.3168 11.5135Z" fill="white"/>
<path d="M79.7104 5.45782H75.8926V27.701H79.7104V5.45782Z" fill="white"/>
<path d="M90.9487 11.5135C88.323 11.5135 85.7864 12.1734 84.0483 13.4932L85.545 16.2203C86.7669 15.2323 88.6609 14.6307 90.4919 14.6307C93.2104 14.6307 94.5511 15.9214 94.5511 18.1089V18.3495H90.3359C85.389 18.3495 83.5581 20.4495 83.5581 23.1146C83.5581 25.7797 85.909 27.9125 89.634 27.9125C92.0777 27.9125 93.8492 27.1323 94.7628 25.7542V27.7047H98.3653V18.324C98.3653 13.7083 95.6467 11.5208 90.945 11.5208L90.9487 11.5135ZM94.5511 22.6953C93.9086 24.3432 92.2931 25.1818 90.4287 25.1818C88.4753 25.1818 87.3128 24.3141 87.3128 22.9651C87.3128 21.7948 88.0147 20.8359 90.6107 20.8359H94.5511V22.6953Z" fill="white"/>
<path d="M115.226 19.7859C115.226 22.9943 113.425 24.613 110.769 24.613C108.355 24.613 106.952 23.2349 106.952 20.3255V11.6922H103.134V20.8359C103.134 25.663 105.975 27.9089 110.157 27.9089C112.262 27.9089 114.186 27.1287 115.408 25.6594V27.6974H119.044V11.6885H115.226V19.7823V19.7859Z" fill="white"/>
<path d="M133.309 11.5135C130.929 11.5135 128.942 12.2937 127.69 13.763V11.6958H124.054V27.7047H127.872V19.6109C127.872 16.4026 129.703 14.7839 132.422 14.7839C134.865 14.7839 136.299 16.162 136.299 19.0094V27.7047H140.117V18.5318C140.117 13.7047 137.216 11.5172 133.309 11.5172V11.5135Z" fill="white"/>
<path d="M152.58 14.6927C154.199 14.6927 155.663 15.3818 156.643 16.9094L159.573 15.2323C158.322 12.8042 155.785 11.5135 152.61 11.5135C147.448 11.5135 143.786 14.9005 143.786 19.6984C143.786 24.4964 147.448 27.9125 152.61 27.9125C155.785 27.9125 158.318 26.5635 159.573 24.1646L156.643 22.4875C155.666 24.0151 154.199 24.7042 152.58 24.7042C149.772 24.7042 147.633 22.8156 147.633 19.6984C147.633 16.5812 149.772 14.6927 152.58 14.6927Z" fill="white"/>
<path d="M171.974 11.5135C169.712 11.5135 167.789 12.2318 166.537 13.5516V5.45782H162.719V27.701H166.537V19.6073C166.537 16.399 168.368 14.7802 171.087 14.7802C173.53 14.7802 174.964 16.1583 174.964 19.0057V27.701H178.782V18.5281C178.782 13.701 175.881 11.5135 171.97 11.5135H171.974Z" fill="white"/>
<path d="M183.788 0C183.788 3.78802 180.661 6.85416 176.806 6.85416C180.664 6.85416 183.788 9.92395 183.788 13.7083C183.788 9.92031 186.915 6.85416 190.77 6.85416C186.911 6.85416 183.788 3.78437 183.788 0Z" fill="#13D7D2"/>
<path d="M190.774 13.0594C190.774 15.3526 188.88 17.2083 186.547 17.2083C188.883 17.2083 190.774 19.0677 190.774 21.3573C190.774 19.0641 192.668 17.2083 195 17.2083C192.664 17.2083 190.774 15.349 190.774 13.0594Z" fill="#13D7D2"/>
</g>
<defs>
<clipPath id="clip0_565_18570">
<rect width="196" height="28" fill="white"/>
</clipPath>
</defs>
</svg>
