<svg width="25" height="25" viewBox="0 0 25 25" fill="currentColor" xmlns="http://www.w3.org/2000/svg">
<g id="Frame">
<path id="Vector" d="M7.49317 17.8569C7.49317 17.9354 7.40123 17.9981 7.2853 17.9981C7.15339 18.0099 7.06144 17.9471 7.06144 17.8569C7.06144 17.7785 7.15339 17.7158 7.26931 17.7158C7.38924 17.704 7.49317 17.7667 7.49317 17.8569ZM6.24995 17.6805C6.22197 17.7589 6.30192 17.8491 6.42184 17.8726C6.52578 17.9118 6.6457 17.8726 6.66969 17.7942C6.69367 17.7158 6.61772 17.6256 6.4978 17.5903C6.39386 17.5628 6.27793 17.602 6.24995 17.6805ZM8.01684 17.6138C7.90092 17.6413 7.82097 17.7158 7.83296 17.806C7.84495 17.8844 7.94889 17.9354 8.06881 17.9079C8.18474 17.8805 8.26469 17.806 8.2527 17.7275C8.2407 17.653 8.13277 17.602 8.01684 17.6138ZM10.6472 2.58594C5.10267 2.58594 0.861328 6.71546 0.861328 12.1548C0.861328 16.504 3.65158 20.2256 7.63708 21.5355C8.14876 21.6257 8.32865 21.3159 8.32865 21.061C8.32865 20.8178 8.31666 19.4766 8.31666 18.653C8.31666 18.653 5.51841 19.2413 4.93078 17.4844C4.93078 17.4844 4.47506 16.3432 3.81947 16.049C3.81947 16.049 2.90405 15.4333 3.88343 15.4451C3.88343 15.4451 4.87881 15.5235 5.42647 16.4569C6.30192 17.9707 7.769 17.5354 8.34064 17.2765C8.43258 16.6491 8.69242 16.2138 8.98024 15.9549C6.74564 15.7118 4.49105 15.3941 4.49105 11.6215C4.49105 10.543 4.79486 10.0018 5.43446 9.31161C5.33053 9.0567 4.99074 8.00569 5.5384 6.64879C6.37387 6.39388 8.29667 7.70765 8.29667 7.70765C9.09617 7.48803 9.95563 7.3743 10.8071 7.3743C11.6586 7.3743 12.518 7.48803 13.3175 7.70765C13.3175 7.70765 15.2403 6.38996 16.0758 6.64879C16.6235 8.00961 16.2837 9.0567 16.1797 9.31161C16.8193 10.0057 17.2111 10.5469 17.2111 11.6215C17.2111 15.4059 14.8566 15.7079 12.622 15.9549C12.9897 16.2647 13.3015 16.853 13.3015 17.7746C13.3015 19.0962 13.2895 20.7315 13.2895 21.0531C13.2895 21.308 13.4734 21.6178 13.9811 21.5276C17.9786 20.2256 20.6889 16.504 20.6889 12.1548C20.6889 6.71546 16.1917 2.58594 10.6472 2.58594ZM4.74689 16.1118C4.69493 16.151 4.70692 16.2412 4.77488 16.3157C4.83884 16.3785 4.93078 16.4059 4.98275 16.3549C5.03471 16.3157 5.02272 16.2255 4.95476 16.151C4.8908 16.0883 4.79886 16.0608 4.74689 16.1118ZM4.31516 15.7941C4.28718 15.8451 4.32716 15.9079 4.40711 15.9471C4.47107 15.9863 4.55102 15.9745 4.579 15.9196C4.60698 15.8687 4.56701 15.8059 4.48706 15.7667C4.40711 15.7432 4.34315 15.7549 4.31516 15.7941ZM5.61035 17.1903C5.54639 17.2412 5.57038 17.3589 5.66232 17.4334C5.75426 17.5236 5.87019 17.5354 5.92216 17.4726C5.97412 17.4216 5.95014 17.304 5.87019 17.2295C5.78224 17.1393 5.66232 17.1275 5.61035 17.1903ZM5.15464 16.6138C5.09068 16.653 5.09068 16.755 5.15464 16.8452C5.2186 16.9353 5.32653 16.9746 5.3785 16.9353C5.44246 16.8844 5.44246 16.7824 5.3785 16.6922C5.32253 16.602 5.2186 16.5628 5.15464 16.6138Z" fill="currentColor"/>
</g>
</svg>
