<svg width="22" height="22" viewBox="0 0 22 22" fill="none" xmlns="http://www.w3.org/2000/svg">
<g id="mdi:github">
<path id="Vector" d="M11.0002 1.83325C9.79638 1.83325 8.60438 2.07035 7.49223 2.53102C6.38008 2.99169 5.36955 3.6669 4.51835 4.51811C2.79927 6.23719 1.8335 8.56877 1.8335 10.9999C1.8335 15.0516 4.46433 18.4891 8.1035 19.7083C8.56183 19.7816 8.7085 19.4974 8.7085 19.2499V17.7008C6.16933 18.2508 5.6285 16.4724 5.6285 16.4724C5.20683 15.4091 4.611 15.1249 4.611 15.1249C3.77683 14.5566 4.67516 14.5749 4.67516 14.5749C5.59183 14.6391 6.07766 15.5191 6.07766 15.5191C6.87516 16.9124 8.22266 16.4999 8.74516 16.2799C8.82766 15.6841 9.066 15.2808 9.32266 15.0516C7.28766 14.8224 5.15183 14.0341 5.15183 10.5416C5.15183 9.52409 5.50016 8.70825 6.096 8.05742C6.00433 7.82825 5.6835 6.87492 6.18766 5.63742C6.18766 5.63742 6.95766 5.38992 8.7085 6.57242C9.43266 6.37075 10.221 6.26992 11.0002 6.26992C11.7793 6.26992 12.5677 6.37075 13.2918 6.57242C15.0427 5.38992 15.8127 5.63742 15.8127 5.63742C16.3168 6.87492 15.996 7.82825 15.9043 8.05742C16.5002 8.70825 16.8485 9.52409 16.8485 10.5416C16.8485 14.0433 14.7035 14.8133 12.6593 15.0424C12.9893 15.3266 13.2918 15.8858 13.2918 16.7383V19.2499C13.2918 19.4974 13.4385 19.7908 13.906 19.7083C17.5452 18.4799 20.1668 15.0516 20.1668 10.9999C20.1668 9.79613 19.9297 8.60414 19.4691 7.49199C19.0084 6.37984 18.3332 5.36931 17.482 4.51811C16.6308 3.6669 15.6202 2.99169 14.5081 2.53102C13.3959 2.07035 12.2039 1.83325 11.0002 1.83325Z" fill="#4F4F4F"/>
</g>
</svg>
