<svg width="22" height="19" viewBox="0 0 22 19" fill="none" xmlns="http://www.w3.org/2000/svg">
<g id="ph:heart">
<path id="Vector" d="M15.2969 2.68475C13.5223 2.68475 11.9685 3.42978 11 4.68911C10.0315 3.42978 8.47773 2.68475 6.70312 2.68475C5.29051 2.68631 3.9362 3.23485 2.93733 4.21003C1.93846 5.18522 1.37659 6.5074 1.375 7.88652C1.375 13.7595 10.2945 18.5132 10.6743 18.7095C10.7744 18.7621 10.8863 18.7896 11 18.7896C11.1137 18.7896 11.2256 18.7621 11.3257 18.7095C11.7055 18.5132 20.625 13.7595 20.625 7.88652C20.6234 6.5074 20.0615 5.18522 19.0627 4.21003C18.0638 3.23485 16.7095 2.68631 15.2969 2.68475ZM11 17.3504C9.43078 16.4577 2.75 12.3911 2.75 7.88652C2.75136 6.86336 3.16829 5.88249 3.90935 5.159C4.65041 4.43552 5.65511 4.02848 6.70312 4.02714C8.37461 4.02714 9.77797 4.89634 10.3641 6.29243C10.4159 6.41553 10.504 6.52083 10.6172 6.59493C10.7304 6.66903 10.8637 6.70859 11 6.70859C11.1363 6.70859 11.2696 6.66903 11.3828 6.59493C11.496 6.52083 11.5841 6.41553 11.6359 6.29243C12.222 4.89383 13.6254 4.02714 15.2969 4.02714C16.3449 4.02848 17.3496 4.43552 18.0907 5.159C18.8317 5.88249 19.2486 6.86336 19.25 7.88652C19.25 12.3844 12.5675 16.4568 11 17.3504Z" fill="#747474"/>
</g>
</svg>
