<svg width="53" height="53" viewBox="0 0 53 53" fill="none" xmlns="http://www.w3.org/2000/svg">
<g id="ic:outline-rocket-launch">
<path id="Vector" d="M13.2501 33.125C11.4172 33.125 9.76091 33.8759 8.56841 35.0684C5.96258 37.6742 4.41675 48.5834 4.41675 48.5834C4.41675 48.5834 15.3259 47.0375 17.9317 44.4317C18.8614 43.5069 19.4953 42.3266 19.7529 41.0408C20.0105 39.755 19.8802 38.4217 19.3785 37.2101C18.8768 35.9985 18.0264 34.9633 16.9353 34.236C15.8441 33.5086 14.5614 33.1219 13.2501 33.125ZM14.818 41.3179C14.1997 41.9363 10.0259 42.9963 10.0259 42.9963C10.0259 42.9963 11.0638 38.8446 11.7042 38.2042C12.0797 37.7846 12.6317 37.5417 13.2501 37.5417C13.6873 37.5423 14.1145 37.6723 14.478 37.9153C14.8415 38.1584 15.1249 38.5035 15.2925 38.9073C15.4602 39.3111 15.5046 39.7555 15.4201 40.1844C15.3357 40.6134 15.1262 41.0078 14.818 41.3179ZM38.4692 30.1438C52.5142 16.0988 47.8326 5.16752 47.8326 5.16752C47.8326 5.16752 36.9013 0.485857 22.8563 14.5309L17.3576 13.4267C16.6428 13.2894 15.9053 13.3283 15.2089 13.5399C14.5125 13.7515 13.8781 14.1295 13.3605 14.6413L4.41675 23.6071L15.4584 28.3329L24.6672 37.5417L29.393 48.5834L38.3368 39.6396C39.3747 38.6017 39.8384 37.1 39.5513 35.6425L38.4692 30.1438ZM16.3638 23.9163L12.1459 22.1054L16.4963 17.755L19.6763 18.3954C18.4176 20.2284 17.2913 22.1496 16.3638 23.9163ZM30.8947 40.8542L29.0838 36.6363C30.8505 35.7088 32.7717 34.5825 34.5826 33.3238L35.223 36.5038L30.8947 40.8542ZM35.3334 27.03C32.4184 29.945 27.8692 32.33 26.4117 33.0588L19.9413 26.5884C20.648 25.1529 23.033 20.6038 25.9701 17.6667C36.3051 7.33169 44.1447 8.85544 44.1447 8.85544C44.1447 8.85544 45.6684 16.695 35.3334 27.03ZM33.1251 24.2917C35.5542 24.2917 37.5417 22.3042 37.5417 19.875C37.5417 17.4459 35.5542 15.4584 33.1251 15.4584C30.6959 15.4584 28.7084 17.4459 28.7084 19.875C28.7084 22.3042 30.6959 24.2917 33.1251 24.2917Z" fill="#77EB67"/>
</g>
</svg>
