<svg width="24" height="24" viewBox="0 0 24 24" fill="currentColor" xmlns="http://www.w3.org/2000/svg">
<path d="M23.3225 0.767683C22.7222 0.155432 21.8338 -0.0726612 21.0055 0.167437L1.6896 5.74972C1.2696 5.86364 0.890588 6.09449 0.596665 6.41541C0.302743 6.73632 0.105995 7.1341 0.0293162 7.56247C-0.141154 8.45803 0.45429 9.5961 1.23221 10.0715L7.27188 13.7594C7.57277 13.9443 7.92718 14.0223 8.27788 13.9809C8.62857 13.9395 8.95508 13.7811 9.20467 13.5313L16.1195 6.61408C16.2018 6.52838 16.3006 6.4602 16.41 6.41363C16.5193 6.36706 16.6369 6.34305 16.7558 6.34305C16.8746 6.34305 16.9922 6.36706 17.1016 6.41363C17.2109 6.4602 17.3097 6.52838 17.392 6.61408C17.7402 6.96222 17.7402 7.52645 17.392 7.8866L10.4652 14.8026C10.215 15.0519 10.056 15.378 10.0137 15.7287C9.97148 16.0793 10.0485 16.4339 10.2323 16.7354L13.9226 22.7979C14.3548 23.5158 15.0991 23.9264 15.9154 23.9264C16.0115 23.9264 16.1195 23.9264 16.2155 23.912C17.1519 23.7931 17.8962 23.1556 18.1723 22.2553L23.8987 3.08463C24.1508 2.2683 23.9227 1.37993 23.3225 0.767683Z" fill="currentColor"/>
<path opacity="0.4" fill-rule="evenodd" clip-rule="evenodd" d="M1.21329 17.8507C1.03507 17.8511 0.860752 17.7986 0.71246 17.6997C0.564167 17.6009 0.448593 17.4602 0.380413 17.2955C0.312233 17.1309 0.294522 16.9497 0.32953 16.7749C0.364538 16.6002 0.450685 16.4398 0.577032 16.3141L2.2157 14.6742C2.38488 14.5058 2.61387 14.4113 2.85256 14.4113C3.09126 14.4113 3.32025 14.5058 3.48942 14.6742C3.65745 14.8433 3.75175 15.0721 3.75175 15.3105C3.75175 15.5489 3.65745 15.7776 3.48942 15.9467L1.84955 17.5878C1.76626 17.6717 1.66713 17.7383 1.55791 17.7837C1.44869 17.829 1.33155 17.851 1.21329 17.8507ZM5.72954 19.2817C5.55132 19.2821 5.377 19.2296 5.22871 19.1307C5.08042 19.0319 4.96484 18.8912 4.89666 18.7265C4.82848 18.5618 4.81077 18.3806 4.84578 18.2059C4.88079 18.0311 4.96693 17.8707 5.09328 17.7451L6.73195 16.1052C6.90108 15.9372 7.12981 15.8429 7.36821 15.8429C7.60662 15.8429 7.83534 15.9372 8.00447 16.1052C8.17286 16.2744 8.2674 16.5033 8.2674 16.742C8.2674 16.9807 8.17286 17.2097 8.00447 17.3789L6.367 19.0176C6.28371 19.1015 6.18458 19.1681 6.07536 19.2134C5.96614 19.2588 5.8478 19.282 5.72954 19.2817ZM6.03327 23.565C6.20854 23.7415 6.43903 23.8291 6.66953 23.8291C6.78778 23.8294 6.90492 23.8062 7.01414 23.7609C7.12337 23.7156 7.2225 23.649 7.30579 23.565L8.94566 21.9264C9.11368 21.7572 9.20799 21.5285 9.20799 21.2901C9.20799 21.0517 9.11368 20.823 8.94566 20.6538C8.77653 20.4858 8.5478 20.3915 8.3094 20.3915C8.07099 20.3915 7.84227 20.4858 7.67314 20.6538L6.03327 22.2925C5.94964 22.376 5.88329 22.4752 5.83802 22.5844C5.79275 22.6936 5.76945 22.8106 5.76945 22.9288C5.76945 23.047 5.79275 23.164 5.83802 23.2732C5.88329 23.3823 5.94964 23.4815 6.03327 23.565Z" fill="currentColor"/>
</svg>
