<svg width="24" height="22" viewBox="0 0 24 22" fill="currentColor" xmlns="http://www.w3.org/2000/svg">
<g id="Frame" clip-path="url(#clip0_272_17145)">
<path id="Vector" d="M22.2466 4.32355L17.0341 7.60207L12.0359 0.796207C12.0158 0.768814 11.9897 0.74658 11.9597 0.731265C11.9298 0.715951 11.8967 0.707977 11.8632 0.707977C11.8296 0.707977 11.7966 0.715951 11.7666 0.731265C11.7366 0.74658 11.7105 0.768814 11.6904 0.796207L6.69485 7.60207L1.47967 4.32355C1.32699 4.22785 1.12878 4.35636 1.15288 4.53957L3.19931 20.4153C3.22878 20.6314 3.41092 20.7982 3.62788 20.7982H20.1038C20.3181 20.7982 20.5029 20.6341 20.5297 20.4153L22.5761 4.53957C22.5975 4.35636 22.402 4.22785 22.2466 4.32355ZM18.8716 18.9278H4.85467L3.4136 7.73332L7.15824 10.0876L11.8645 3.67824L16.5707 10.0876L20.3154 7.73332L18.8716 18.9278ZM11.8645 10.681C10.2011 10.681 8.84842 12.0618 8.84842 13.7599C8.84842 15.4579 10.2011 16.8388 11.8645 16.8388C13.5279 16.8388 14.8806 15.4579 14.8806 13.7599C14.8806 12.0618 13.5279 10.681 11.8645 10.681ZM11.8645 15.0806C11.152 15.0806 10.5734 14.49 10.5734 13.7599C10.5734 13.0325 11.152 12.4392 11.8645 12.4392C12.577 12.4392 13.1556 13.0298 13.1556 13.7599C13.1556 14.4872 12.577 15.0806 11.8645 15.0806Z" fill="currentColor"/>
</g>
<defs>
<clipPath id="clip0_272_17145">
<rect width="24" height="21" fill="currentColor" transform="translate(0 0.387817)"/>
</clipPath>
</defs>
</svg>
