<svg width="65" height="65" viewBox="0 0 65 65" fill="none" xmlns="http://www.w3.org/2000/svg">
<circle opacity="0.4" cx="32.5" cy="32.5" r="32" stroke="white"/>
<g clip-path="url(#clip0_1530_9283)">
<g clip-path="url(#clip1_1530_9283)">
<path d="M55.3845 39.1613C55.3845 39.0569 55.3769 38.9398 55.2775 38.8991C54.87 38.7311 54.6203 38.3544 54.251 38.1355C54.1262 38.0617 53.9988 37.998 53.8715 37.9446C53.8766 37.9166 53.8766 37.8835 53.8766 37.8479C53.8664 34.633 53.8689 30.0666 53.8689 26.8517C53.8689 23.6369 53.8664 20.4042 53.8766 17.1792C53.8766 16.889 53.8205 16.7923 53.5072 16.7948C50.774 16.8076 48.0434 16.8076 45.3103 16.7948C44.9995 16.7948 44.9409 16.8839 44.9409 17.1741C44.9486 23.3874 44.9486 31.576 44.9486 37.8275C44.7168 37.7893 44.4722 37.797 44.215 37.8631C43.7947 37.97 43.4661 38.2195 43.1553 38.4995C43.1375 38.5173 43.1197 38.5377 43.1018 38.558C43.0891 36.0228 43.0967 28.0633 43.0967 26.0805H43.0942C43.0942 23.9652 43.0942 21.8526 43.0993 19.7399C43.0993 19.5261 43.0687 19.437 42.8191 19.437C40.0324 19.4472 37.2458 19.4472 34.4591 19.4395C34.2273 19.437 34.1687 19.5006 34.1687 19.7322C34.1789 22.5729 34.1789 26.783 34.1713 29.7535C33.5676 29.7229 32.9512 29.7586 32.3271 29.8629C32.3195 27.9106 32.3195 24.8027 32.3296 23.1354C32.3296 22.8885 32.2761 22.802 32.0087 22.8045C29.245 22.8147 26.4812 22.8147 23.7175 22.8045C23.45 22.802 23.394 22.8834 23.3965 23.1329C23.4067 25.0038 23.4016 26.8746 23.4016 28.7455V33.004C23.4016 33.4163 23.4042 36.5166 23.4016 37.8122C22.9941 37.7868 22.5967 37.9115 22.2146 38.2017C22.0134 38.3544 21.8376 38.5402 21.6415 38.698C21.6135 38.7209 21.5829 38.7438 21.5549 38.7642C21.5422 37.349 21.5498 32.9581 21.5498 31.5505V27.7223C21.5498 27.2386 21.3036 26.9968 20.8111 26.9968C18.2028 26.9968 15.5919 27.0019 12.9835 26.9943C12.6982 26.9943 12.6193 27.0783 12.6218 27.3684C12.6345 29.9444 12.6269 35.8675 12.632 38.4409C12.632 38.5784 12.604 38.7362 12.5938 38.8813C12.4104 38.8558 12.2219 38.7362 12.0181 38.5199C11.7456 38.2297 11.4042 38.0235 11.0222 37.8937C10.5305 37.7257 10.5153 37.7333 10.5153 38.2424V38.4409C10.5153 38.6064 10.5127 38.7718 10.5153 38.9348C10.5178 38.9958 10.4898 39.0951 10.5688 39.1053C11.0298 39.1664 11.2387 39.5813 11.5724 39.818C12.1659 40.238 13.0319 40.3653 13.6534 39.8486C13.8547 39.6806 14.0508 39.5024 14.2469 39.3267C14.5985 39.0162 14.9143 39.0188 15.2684 39.3369C15.4238 39.4769 15.5766 39.6195 15.7371 39.7518C16.3815 40.2787 17.0922 40.3322 17.8181 39.9198C18.0601 39.7798 18.2512 39.5838 18.4524 39.3955C18.8778 38.9933 19.2013 38.9984 19.6267 39.3955C19.7948 39.5533 19.9705 39.7035 20.159 39.8358C20.8417 40.3144 21.6339 40.2965 22.3012 39.7875C22.4923 39.6424 22.6757 39.482 22.8413 39.3064C23.0247 39.1129 23.2463 39.0926 23.4781 39.1231C23.827 39.1715 24.525 39.8944 24.581 40.2482C24.609 40.4314 24.6218 40.6198 24.66 40.8005C25.0217 42.595 25.8393 44.1605 27.0645 45.5095C27.4339 45.9168 27.8771 46.2375 28.3432 46.5353C29.6551 47.3728 31.0637 47.9938 32.6124 48.1491C35.5366 48.4469 38.094 47.5764 40.2056 45.507C41.0513 44.6772 41.7161 43.7048 42.1925 42.6154C42.4829 41.9485 42.6917 41.2587 42.7707 40.5333C42.7885 40.3907 42.7707 40.1693 42.9286 40.1311C43.4839 39.9936 43.8583 39.6016 44.271 39.2606C44.541 39.0366 44.8696 39.0544 45.1421 39.2809C45.3536 39.4591 45.5497 39.6526 45.7662 39.8206C46.3725 40.2864 47.1825 40.3144 47.8295 39.8995C48.074 39.7442 48.2701 39.5355 48.4815 39.342C48.8305 39.0188 49.1413 39.0111 49.503 39.3166C49.6431 39.4387 49.7755 39.5711 49.9182 39.6958C50.6594 40.3449 51.6248 40.3475 52.3737 39.7009C52.5393 39.5584 52.6921 39.3955 52.8653 39.2606C53.1328 39.0493 53.4079 39.0544 53.6753 39.2707C53.8205 39.3878 53.953 39.5202 54.0931 39.6449C54.3758 39.8995 54.6993 40.0776 55.0737 40.1616C55.275 40.2075 55.3922 40.154 55.3845 39.9198C55.3769 39.6653 55.3845 39.4133 55.3845 39.1613ZM35.0985 42.4169C34.7028 42.427 34.5041 42.6315 34.5024 43.0303C34.4999 43.4147 34.4948 43.8016 34.505 44.1859C34.5101 44.3565 34.454 44.4354 34.2783 44.4125C34.2579 44.4125 34.235 44.4125 34.212 44.4125C33.886 44.3972 33.4606 44.5397 33.2543 44.3514C33.0454 44.1579 33.2033 43.7277 33.1881 43.4019C33.1779 43.1601 33.1753 42.9183 33.1881 42.6765C33.2008 42.4729 33.132 42.4118 32.9282 42.4143C32.2889 42.427 31.6495 42.4092 31.0127 42.4245C30.7682 42.4296 30.6332 42.3838 30.6663 42.1012C30.7045 41.778 30.5262 41.3427 30.7427 41.1543C30.9287 40.994 31.349 41.0958 31.6674 41.0933C32.7576 41.0882 33.8452 41.0983 34.9354 41.0882C35.5773 41.0831 35.8321 40.7496 35.6945 40.1311C35.6206 39.7976 35.4321 39.6526 35.0526 39.6526C34.1178 39.65 33.1804 39.6602 32.2456 39.6449C31.3209 39.6322 30.5746 39.0569 30.3887 38.1635C30.055 36.5752 31.0688 35.557 32.3806 35.5621C33.1855 35.5646 33.1855 35.5595 33.1855 34.7628C33.1855 34.4548 33.1957 34.1443 33.1779 33.8389C33.1677 33.6429 33.2186 33.5538 33.4249 33.5614C33.7128 33.5741 33.9981 33.5767 34.2834 33.5665C34.4591 33.5614 34.5101 33.6276 34.505 33.7981C34.4948 34.2919 34.5152 34.7883 34.4973 35.2821C34.4871 35.5392 34.5814 35.5926 34.8234 35.5825C35.3506 35.5595 35.8779 35.5774 36.4077 35.5646C36.6166 35.5595 36.7134 35.6232 36.7083 35.8446C36.7007 36.1195 36.721 36.3944 36.721 36.6668C36.721 36.8195 36.6726 36.8959 36.4842 36.8933C35.7913 36.8755 35.0959 36.8857 34.4031 36.8857V36.8908C33.7332 36.8908 33.0607 36.8806 32.3882 36.8933C31.8304 36.9035 31.6139 37.153 31.647 37.7053C31.6699 38.1075 31.8915 38.3264 32.3016 38.3289C33.2161 38.334 34.128 38.3239 35.0424 38.334C36.0766 38.3442 36.7898 38.9246 37.0191 39.9249C37.3171 41.2053 36.4052 42.3863 35.0959 42.4169H35.0985Z" fill="#0FD7D2"/>
<path d="M55.3848 39.1614C55.3848 39.057 55.3771 38.9399 55.2778 38.8992C54.8702 38.7312 54.6206 38.3545 54.2512 38.1356C54.1264 38.0618 53.9991 37.9981 53.8717 37.9447C53.4998 37.7971 53.1152 37.7614 52.6898 37.9269C52.6745 37.932 52.6592 37.9396 52.6439 37.9472C52.2542 38.1076 51.9511 38.38 51.648 38.6599C51.3143 38.9679 50.9883 38.9628 50.6495 38.665C50.461 38.497 50.2776 38.3214 50.0738 38.1712C49.4625 37.7207 48.6728 37.6927 48.0335 38.0847C47.7966 38.2298 47.603 38.4258 47.3992 38.609C46.9942 38.9756 46.7013 38.9781 46.3065 38.6141C46.2937 38.6039 46.2835 38.5938 46.2708 38.581C46.1384 38.4589 46.0059 38.329 45.8582 38.2247C45.5729 38.021 45.2723 37.8785 44.9488 37.8276C44.717 37.7894 44.4725 37.7971 44.2152 37.8632C43.7949 37.9701 43.4663 38.2196 43.1556 38.4996C43.1377 38.5174 43.1199 38.5378 43.1021 38.5581C43.0588 38.6065 43.0104 38.6498 42.939 38.6167C42.8575 38.581 42.9034 38.4792 42.8957 38.408C42.8677 38.1789 42.855 37.9472 42.8168 37.7207C42.6334 36.5956 42.3048 35.5418 41.775 34.5797C41.4387 33.9611 41.0184 33.3782 40.5039 32.8412C39.8314 32.1386 39.1462 31.4565 38.2955 30.9881C37.3938 30.4892 36.4615 30.1278 35.5012 29.9267C35.0656 29.835 34.6198 29.7765 34.1715 29.7536C33.5678 29.723 32.9514 29.7587 32.3273 29.863C32.2535 29.8758 32.1771 29.8885 32.1032 29.9038C31.7186 29.9801 31.3441 30.0718 30.9799 30.1812C29.2528 30.7056 27.7602 31.6423 26.5757 33.1339C26.0204 33.8313 25.5849 34.5746 25.2257 35.3738C25.0041 35.8702 24.836 36.3767 24.7162 36.9011C24.6398 37.2396 24.5812 37.5832 24.5405 37.9294C24.5125 38.1458 24.4615 38.1712 24.2527 38.0618C23.9648 37.9091 23.6795 37.8251 23.4019 37.8123C22.9943 37.7869 22.597 37.9116 22.2149 38.2018C22.0136 38.3545 21.8379 38.5403 21.6418 38.6981C21.6137 38.721 21.5832 38.7439 21.5552 38.7643C21.2724 38.9527 21.0075 38.9247 20.7197 38.6854C20.5515 38.5454 20.3987 38.3901 20.2255 38.2527H20.223C19.5658 37.7258 18.8093 37.68 18.0782 38.0974C17.8133 38.2501 17.6197 38.4716 17.3955 38.665C17.0466 38.9654 16.7384 38.9628 16.397 38.6599C16.2569 38.5378 16.1219 38.4054 15.9793 38.2858C15.3807 37.792 14.5656 37.6443 13.8829 38.0236C13.6893 38.1305 13.5059 38.2807 13.3429 38.4767C13.0907 38.777 12.8488 38.917 12.594 38.8814C12.4106 38.8559 12.2221 38.7363 12.0184 38.5199C11.7458 38.2298 11.4045 38.0236 11.0224 37.8938C10.5308 37.7258 10.5155 37.7334 10.5155 38.2425V38.441C10.5155 38.6065 10.513 38.7719 10.5155 38.9348C10.5181 38.9959 10.49 39.0952 10.569 39.1054C11.03 39.1665 11.2389 39.5814 11.5726 39.8181C12.1661 40.2381 13.0322 40.3654 13.6537 39.8486C13.8549 39.6807 14.051 39.5025 14.2472 39.3268C14.5987 39.0163 14.9146 39.0188 15.2686 39.337C15.424 39.477 15.5768 39.6196 15.7373 39.7519C16.3818 40.2788 17.0924 40.3323 17.8184 39.9199C18.0604 39.7799 18.2514 39.5839 18.4526 39.3956C18.878 38.9934 19.2015 38.9985 19.6269 39.3956C19.795 39.5534 19.9708 39.7036 20.1593 39.8359C20.8419 40.3145 21.6341 40.2966 22.3015 39.7876C22.4925 39.6425 22.6759 39.4821 22.8415 39.3065C23.0249 39.113 23.2465 39.0927 23.4783 39.1232C23.8273 39.1716 24.5252 39.8945 24.5812 40.2483C24.6093 40.4315 24.622 40.6199 24.6602 40.8006C25.0219 42.5951 25.8396 44.1606 27.0648 45.5096C27.4341 45.9169 27.8773 46.2376 28.3435 46.5354C29.6553 47.3729 31.0639 47.9939 32.6126 48.1492C35.5368 48.447 38.0942 47.5765 40.2059 45.5071C41.0516 44.6773 41.7164 43.7049 42.1927 42.6155C42.4831 41.9486 42.692 41.2588 42.7709 40.5334C42.7888 40.3908 42.7709 40.1694 42.9289 40.1312C43.4842 39.9937 43.8586 39.6017 44.2712 39.2607C44.5412 39.0367 44.8698 39.0545 45.1424 39.281C45.3538 39.4592 45.5499 39.6527 45.7665 39.8206C46.3727 40.2865 47.1827 40.3145 47.8297 39.8996C48.0742 39.7443 48.2704 39.5356 48.4818 39.3421C48.8308 39.0188 49.1415 39.0112 49.5032 39.3167C49.6433 39.4388 49.7758 39.5712 49.9184 39.6959C50.6597 40.345 51.6251 40.3475 52.3739 39.701C52.5395 39.5585 52.6923 39.3956 52.8656 39.2607C53.133 39.0494 53.4081 39.0545 53.6756 39.2708C53.8208 39.3879 53.9532 39.5203 54.0933 39.645C54.3761 39.8996 54.6996 40.0777 55.074 40.1617C55.2752 40.2076 55.3924 40.1541 55.3848 39.9199C55.3771 39.6654 55.3848 39.4134 55.3848 39.1614ZM40.0097 43.8475C39.2176 44.9675 38.1885 45.7718 36.9607 46.2783C35.845 46.7365 34.6479 46.935 33.4277 46.902C32.2968 46.8689 31.1913 46.6652 30.1851 46.1714C28.8122 45.4969 27.6481 44.5246 26.8814 43.1806C26.2089 42.0046 25.8243 40.7192 25.7759 39.3472C25.73 38.0109 25.972 36.7407 26.535 35.5189C27.4341 33.5615 28.9497 32.2583 30.9289 31.5557C33.8098 30.535 36.4895 31.0517 38.8788 32.9557C40.3893 34.1571 41.1484 35.8015 41.5202 37.6571C41.6069 38.0949 41.5635 38.5327 41.589 38.8203C41.6451 40.7828 41.0516 42.3737 40.0097 43.8475Z" fill="#62FFFB"/>
</g>
</g>
<defs>
<clipPath id="clip0_1530_9283">
<rect width="35" height="35" fill="white" transform="translate(15 15)"/>
</clipPath>
<clipPath id="clip1_1530_9283">
<rect width="44.8718" height="31.4103" fill="white" transform="translate(10.5129 16.7949)"/>
</clipPath>
</defs>
</svg>
