<svg width="54" height="54" viewBox="0 0 54 54" fill="none" xmlns="http://www.w3.org/2000/svg">
<g id="majesticons:lock-line">
<path id="Vector" d="M18 22.5H13.5C12.3065 22.5 11.1619 22.9741 10.318 23.818C9.47411 24.6619 9 25.8065 9 27V42.75C9 43.9435 9.47411 45.0881 10.318 45.932C11.1619 46.7759 12.3065 47.25 13.5 47.25H40.5C41.6935 47.25 42.8381 46.7759 43.682 45.932C44.5259 45.0881 45 43.9435 45 42.75V27C45 25.8065 44.5259 24.6619 43.682 23.818C42.8381 22.9741 41.6935 22.5 40.5 22.5H36M18 22.5V15.75C18 13.3631 18.9482 11.0739 20.636 9.38604C22.3239 7.69821 24.6131 6.75 27 6.75C29.3869 6.75 31.6761 7.69821 33.364 9.38604C35.0518 11.0739 36 13.3631 36 15.75V22.5M18 22.5H36M27 31.5V38.25" stroke="#22CDA6" stroke-width="4" stroke-linecap="round" stroke-linejoin="round"/>
</g>
</svg>
