<svg width="21" height="26" viewBox="0 0 21 26" fill="none" xmlns="http://www.w3.org/2000/svg">
<g clip-path="url(#clip0_118_220)">
<path d="M16.3976 9.86312V7.22268C16.3973 5.73907 15.8167 4.31632 14.7835 3.26725C13.7504 2.21818 12.3492 1.62868 10.888 1.62835C10.1647 1.62511 9.44776 1.76658 8.77823 2.04468C8.10871 2.32277 7.49968 2.73205 6.98594 3.24913C6.47219 3.76622 6.06378 4.38099 5.78402 5.05834C5.50426 5.7357 5.35864 6.46237 5.35547 7.19687V9.86189" stroke="currentColor" stroke-width="1.5" stroke-linecap="round" stroke-linejoin="round"/>
<path d="M15.5003 24.3708H6.25109C5.64813 24.3709 5.05105 24.2505 4.49394 24.0163C3.93683 23.7821 3.43061 23.4388 3.00419 23.0059C2.57778 22.5731 2.23952 22.0592 2.00874 21.4935C1.77796 20.9279 1.65918 20.3217 1.65918 19.7094V14.4359C1.6595 13.1999 2.1433 12.0146 3.00419 11.1407C3.86508 10.2668 5.03256 9.77585 6.24988 9.77585H15.5003C16.7178 9.77585 17.8855 10.267 18.7464 11.1411C19.6073 12.0153 20.091 13.2009 20.091 14.4372V19.7094C20.091 20.9457 19.6073 22.1313 18.7464 23.0055C17.8855 23.8797 16.7178 24.3708 15.5003 24.3708Z" stroke="currentColor" stroke-width="1.5" stroke-linecap="round" stroke-linejoin="round"/>
<path d="M10.8755 15.7082V18.4372" stroke="currentColor" stroke-width="1.5" stroke-linecap="round" stroke-linejoin="round"/>
</g>
<defs>
<clipPath id="clip0_118_220">
<rect width="21" height="26" fill="white"/>
</clipPath>
</defs>
</svg>
