<svg width="199" height="49" viewBox="0 0 199 49" fill="none" xmlns="http://www.w3.org/2000/svg">
<g id="Logo_Nav">
<g id="Group">
<g id="Group_2">
<path id="Vector" d="M10.627 45.7911L0.536133 24.6879L10.7716 3.20885L18.7518 19.1375L16.005 20.5251L10.8583 10.2336L3.94795 24.6879L10.7138 38.8531L17.3061 26.0177L6.86823 25.931L6.89715 22.8667L22.3371 22.9823L10.627 45.7911Z" fill="url(#paint0_linear_110_78)"/>
</g>
<g id="Group_3">
<path id="Vector_2" d="M51.3086 17.3451L48.504 20.1204C46.7402 18.2413 44.6874 17.3162 42.3165 17.3162C40.2636 17.3162 38.5577 18.01 37.1698 19.3687C35.782 20.7274 35.088 22.3752 35.088 24.341C35.088 26.3646 35.8109 28.0702 37.2566 29.4578C38.7022 30.8454 40.466 31.5681 42.5767 31.5681C43.9356 31.5681 45.0922 31.2791 46.0463 30.7009C47.0005 30.1227 47.7522 29.2265 48.3305 27.9835H42.2875V24.2254H52.7832L52.8121 25.0926C52.8121 26.9139 52.3495 28.6484 51.3953 30.2673C50.4412 31.915 49.2268 33.1581 47.7233 33.9965C46.2198 34.8637 44.4561 35.2973 42.4321 35.2973C40.2636 35.2973 38.3264 34.8348 36.6494 33.8808C34.9435 32.9268 33.6134 31.5971 32.6304 29.8625C31.6473 28.128 31.1558 26.249 31.1558 24.2254C31.1558 21.4791 32.081 19.0796 33.9026 17.0271C36.0711 14.5988 38.8757 13.3847 42.3454 13.3847C44.1669 13.3847 45.8439 13.7316 47.4342 14.3965C48.7064 15.0035 50.0075 15.9864 51.3086 17.3451Z" fill="white"/>
<path id="Vector_3" d="M71.4616 28.2147H59.0287C59.2022 29.3133 59.6937 30.1805 60.4744 30.8165C61.255 31.4525 62.2381 31.7994 63.4525 31.7994C64.8982 31.7994 66.1415 31.308 67.1824 30.2962L70.4496 31.8283C69.64 32.9847 68.657 33.823 67.5293 34.3723C66.4017 34.9215 65.0427 35.2106 63.4814 35.2106C61.0527 35.2106 59.0865 34.459 57.583 32.9268C56.0506 31.3947 55.2988 29.4867 55.2988 27.2029C55.2988 24.8614 56.0506 22.8956 57.583 21.3345C59.0865 19.7735 60.9948 18.9929 63.279 18.9929C65.7078 18.9929 67.6739 19.7735 69.2063 21.3345C70.7387 22.8956 71.4905 24.9481 71.4905 27.492L71.4616 28.2147ZM67.5871 25.1793C67.3269 24.3121 66.8354 23.6183 66.0836 23.069C65.3319 22.5198 64.4645 22.2596 63.4525 22.2596C62.3827 22.2596 61.4285 22.5487 60.6189 23.1558C60.0985 23.5316 59.6359 24.1965 59.2022 25.1504H67.5871V25.1793Z" fill="white"/>
<path id="Vector_4" d="M74.5551 19.3976H78.4295V21.1611C79.0946 20.4383 79.8174 19.8891 80.627 19.5422C81.4366 19.1953 82.304 18.9929 83.2581 18.9929C84.2123 18.9929 85.0797 19.2242 85.8604 19.7156C86.641 20.1782 87.2482 20.872 87.7398 21.797C88.3469 20.9009 89.0987 20.2071 89.995 19.7156C90.8913 19.2531 91.8744 18.9929 92.9153 18.9929C94.014 18.9929 94.9682 19.2531 95.8067 19.7445C96.6452 20.2649 97.2234 20.9298 97.5993 21.7392C97.9752 22.5487 98.1487 23.9074 98.1487 25.7575V34.8059H94.2453V26.9717C94.2453 25.2372 94.014 24.0519 93.5803 23.4159C93.1466 22.8088 92.4816 22.4909 91.6142 22.4909C90.9492 22.4909 90.3709 22.6932 89.8215 23.069C89.2722 23.4448 88.8963 23.9652 88.665 24.6301C88.4048 25.295 88.2891 26.3646 88.2891 27.8389V34.8059H84.3858V27.3475C84.3858 25.9599 84.2701 24.977 84.0677 24.341C83.8653 23.7339 83.5473 23.2714 83.1425 22.9534C82.7377 22.6354 82.2462 22.4909 81.6679 22.4909C81.0318 22.4909 80.4535 22.6932 79.9041 23.069C79.3837 23.4448 78.9789 23.9941 78.7187 24.6879C78.4585 25.3817 78.3139 26.4513 78.3139 27.9546V34.8059H74.4395V19.3976H74.5551Z" fill="white"/>
<path id="Vector_5" d="M101.445 13.4425H105.319V34.8059H101.445V13.4425Z" fill="white"/>
<path id="Vector_6" d="M120.21 19.3976H124.084V34.8059H120.21V33.187C119.458 33.9097 118.706 34.4301 117.926 34.7481C117.174 35.0661 116.336 35.2106 115.468 35.2106C113.473 35.2106 111.767 34.4301 110.293 32.8979C108.847 31.3658 108.124 29.4289 108.124 27.1451C108.124 24.7746 108.818 22.8088 110.235 21.3056C111.651 19.7734 113.357 19.0218 115.352 19.0218C116.278 19.0218 117.145 19.1953 117.955 19.5422C118.764 19.8891 119.516 20.4094 120.21 21.1032V19.3976ZM116.133 22.5487C114.948 22.5487 113.936 22.9823 113.155 23.8206C112.374 24.659 111.97 25.7575 111.97 27.0584C111.97 28.3882 112.374 29.4867 113.184 30.354C113.994 31.2212 114.977 31.6549 116.162 31.6549C117.376 31.6549 118.388 31.2212 119.198 30.3829C120.008 29.5445 120.412 28.4171 120.412 27.0584C120.412 25.7286 120.008 24.6301 119.198 23.7917C118.359 22.9823 117.347 22.5487 116.133 22.5487Z" fill="white"/>
<path id="Vector_7" d="M127.959 19.3976H131.862V26.8271C131.862 28.2726 131.949 29.2844 132.151 29.8336C132.354 30.3829 132.672 30.8454 133.106 31.1345C133.539 31.4525 134.089 31.5971 134.725 31.5971C135.361 31.5971 135.91 31.4525 136.373 31.1345C136.835 30.8165 137.154 30.3829 137.385 29.7758C137.558 29.3422 137.616 28.3882 137.616 26.9139V19.3976H141.491V25.931C141.491 28.6195 141.288 30.4696 140.854 31.4525C140.334 32.6667 139.582 33.5917 138.57 34.2277C137.558 34.8637 136.286 35.2106 134.725 35.2106C133.048 35.2106 131.66 34.8348 130.619 34.0832C129.578 33.3316 128.826 32.2619 128.422 30.9322C128.132 30.0071 127.959 28.3015 127.959 25.8442V19.3976Z" fill="white"/>
<path id="Vector_8" d="M145.394 19.3976H149.268V20.9876C150.136 20.236 150.945 19.7445 151.639 19.4555C152.362 19.1664 153.085 19.0218 153.836 19.0218C155.369 19.0218 156.67 19.5422 157.74 20.6118C158.636 21.508 159.07 22.8667 159.07 24.6301V34.8059H155.253V28.0413C155.253 26.1911 155.166 24.977 154.993 24.3699C154.82 23.7628 154.53 23.3003 154.126 22.9823C153.721 22.6643 153.2 22.5198 152.593 22.5198C151.813 22.5198 151.147 22.7799 150.569 23.3003C150.02 23.8206 149.615 24.5434 149.413 25.4684C149.297 25.9599 149.239 27.0006 149.239 28.5906V34.777H145.365V19.3976H145.394Z" fill="white"/>
<path id="Vector_9" d="M177.922 22.4909L174.683 24.2832C174.076 23.6472 173.469 23.2136 172.891 22.9534C172.312 22.6932 171.619 22.5776 170.809 22.5776C169.363 22.5776 168.178 23.0112 167.31 23.8785C166.414 24.7457 165.98 25.8442 165.98 27.2029C165.98 28.5038 166.414 29.5734 167.281 30.4118C168.149 31.2501 169.277 31.6549 170.664 31.6549C172.399 31.6549 173.729 31.0767 174.712 29.8914L177.777 31.9729C176.129 34.1121 173.787 35.2106 170.78 35.2106C168.062 35.2106 165.951 34.4012 164.419 32.8112C162.887 31.1923 162.106 29.3133 162.106 27.174C162.106 25.6708 162.482 24.3121 163.234 23.0401C163.985 21.797 165.026 20.7852 166.356 20.0914C167.686 19.3687 169.19 19.0218 170.838 19.0218C172.37 19.0218 173.729 19.3398 174.973 19.9469C176.129 20.5251 177.141 21.3923 177.922 22.4909Z" fill="white"/>
<path id="Vector_10" d="M181.42 13.4425H185.266V20.9587C186.018 20.2938 186.769 19.8313 187.55 19.4844C188.302 19.1664 189.083 18.9929 189.863 18.9929C191.396 18.9929 192.697 19.5133 193.738 20.5829C194.634 21.508 195.097 22.8378 195.097 24.6301V34.8059H191.28V28.0413C191.28 26.249 191.193 25.0348 191.02 24.4277C190.846 23.7917 190.557 23.3292 190.152 23.0112C189.748 22.6932 189.227 22.5487 188.62 22.5487C187.839 22.5487 187.174 22.8088 186.596 23.3292C186.047 23.8496 185.642 24.5434 185.439 25.4684C185.324 25.931 185.266 27.0006 185.266 28.6484V34.8348H181.42V13.4425Z" fill="white"/>
</g>
</g>
</g>
<defs>
<linearGradient id="paint0_linear_110_78" x1="0.526852" y1="24.4954" x2="22.34" y2="24.4954" gradientUnits="userSpaceOnUse">
<stop stop-color="#0FD7D2"/>
<stop offset="0.036741" stop-color="#17D8CA"/>
<stop offset="0.2271" stop-color="#39DFA7"/>
<stop offset="0.4193" stop-color="#54E48B"/>
<stop offset="0.6118" stop-color="#68E877"/>
<stop offset="0.805" stop-color="#73EA6B"/>
<stop offset="1" stop-color="#77EB67"/>
</linearGradient>
</defs>
</svg>
