<svg width="52" height="52" viewBox="0 0 52 52" fill="none" xmlns="http://www.w3.org/2000/svg">
<g id="material-symbols:manage-accounts-outline-rounded">
<path id="Vector" d="M21.6666 26.0001C19.2833 26.0001 17.243 25.1515 15.5458 23.4542C13.8485 21.757 12.9999 19.7167 12.9999 17.3334C12.9999 14.9501 13.8485 12.9098 15.5458 11.2126C17.243 9.51536 19.2833 8.66675 21.6666 8.66675C24.0499 8.66675 26.0902 9.51536 27.7874 11.2126C29.4846 12.9098 30.3333 14.9501 30.3333 17.3334C30.3333 19.7167 29.4846 21.757 27.7874 23.4542C26.0902 25.1515 24.0499 26.0001 21.6666 26.0001ZM6.49993 43.3334C5.88604 43.3334 5.37109 43.1254 4.95509 42.7094C4.53909 42.2934 4.33182 41.7792 4.33326 41.1667V37.2668C4.33326 36.0751 4.6402 34.9556 5.25409 33.9084C5.86798 32.8612 6.71659 32.0667 7.79993 31.5251C9.64159 30.5862 11.718 29.7917 14.0291 29.1417C16.3402 28.4917 18.886 28.1667 21.6666 28.1667H22.4249C22.6416 28.1667 22.8583 28.2029 23.0749 28.2751C22.786 28.9251 22.5419 29.6025 22.3426 30.3074C22.1433 31.0123 21.9902 31.7432 21.8833 32.5001H21.6666C19.1027 32.5001 16.801 32.8251 14.7614 33.4751C12.7219 34.1251 11.0514 34.7751 9.74993 35.4251C9.42493 35.6056 9.16276 35.8584 8.96343 36.1834C8.76409 36.5084 8.66515 36.8695 8.66659 37.2668V39.0001H22.3166C22.5333 39.7584 22.8221 40.5081 23.1833 41.2491C23.5444 41.9901 23.9416 42.6849 24.3749 43.3334H6.49993ZM21.6666 21.6667C22.8583 21.6667 23.8788 21.2421 24.7281 20.3927C25.5774 19.5434 26.0014 18.5236 25.9999 17.3334C25.9999 16.1417 25.5753 15.1212 24.7259 14.2719C23.8766 13.4226 22.8568 12.9986 21.6666 13.0001C20.4749 13.0001 19.4544 13.4247 18.6051 14.2741C17.7558 15.1234 17.3318 16.1432 17.3333 17.3334C17.3333 18.5251 17.7579 19.5456 18.6073 20.3949C19.4566 21.2442 20.4764 21.6682 21.6666 21.6667ZM36.8333 39.0001C38.0249 39.0001 39.0454 38.5754 39.8948 37.7261C40.7441 36.8768 41.168 35.857 41.1666 34.6667C41.1666 33.4751 40.7419 32.4546 39.8926 31.6052C39.0433 30.7559 38.0235 30.332 36.8333 30.3334C35.6416 30.3334 34.6211 30.7581 33.7718 31.6074C32.9224 32.4567 32.4985 33.4765 32.4999 34.6667C32.4999 35.8584 32.9246 36.8789 33.7739 37.7282C34.6233 38.5776 35.643 39.0015 36.8333 39.0001ZM34.0166 42.2501C33.5833 42.0695 33.1767 41.8796 32.7968 41.6802C32.4169 41.4809 32.029 41.2375 31.6333 40.9501L29.3041 41.6543C29.0513 41.7265 28.8166 41.7171 28.5999 41.6261C28.3833 41.5351 28.2027 41.382 28.0583 41.1667L26.7583 39.0001C26.6138 38.7834 26.569 38.5487 26.6239 38.2959C26.6788 38.0431 26.8139 37.8265 27.0291 37.6459L28.8166 36.0751C28.7444 35.5695 28.7083 35.1001 28.7083 34.6667C28.7083 34.2334 28.7444 33.764 28.8166 33.2584L27.0291 31.6876C26.8124 31.507 26.6774 31.2904 26.6239 31.0376C26.5705 30.7848 26.6153 30.5501 26.7583 30.3334L28.0583 28.1667C28.2027 27.9501 28.3833 27.797 28.5999 27.7074C28.8166 27.6179 29.0513 27.6085 29.3041 27.6792L31.6333 28.3834C32.0305 28.0945 32.419 27.8511 32.7989 27.6532C33.1788 27.4554 33.5847 27.2654 34.0166 27.0834L34.5041 24.7001C34.5763 24.4473 34.7027 24.2393 34.8833 24.0761C35.0638 23.9129 35.2805 23.832 35.5333 23.8334H38.1333C38.386 23.8334 38.6027 23.915 38.7833 24.0782C38.9638 24.2415 39.0902 24.4487 39.1624 24.7001L39.6499 27.0834C40.0833 27.264 40.4899 27.4626 40.8698 27.6792C41.2497 27.8959 41.6375 28.1667 42.0333 28.4917L44.3083 27.6792C44.561 27.5709 44.8051 27.5709 45.0406 27.6792C45.276 27.7876 45.4653 27.9501 45.6083 28.1667L46.9083 30.4417C47.0527 30.6584 47.1069 30.8931 47.0708 31.1459C47.0347 31.3987 46.9083 31.6154 46.6916 31.7959L44.8499 33.3667C44.9222 33.8001 44.9583 34.2515 44.9583 34.7209C44.9583 35.1904 44.9222 35.6417 44.8499 36.0751L46.6374 37.6459C46.8541 37.8265 46.9899 38.0431 47.0448 38.2959C47.0996 38.5487 47.0541 38.7834 46.9083 39.0001L45.6083 41.1667C45.4638 41.3834 45.2833 41.5372 45.0666 41.6282C44.8499 41.7192 44.6152 41.7279 44.3624 41.6543L42.0333 40.9501C41.636 41.239 41.2482 41.4831 40.8698 41.6824C40.4913 41.8818 40.0847 42.071 39.6499 42.2501L39.1624 44.6334C39.0902 44.8862 38.9638 45.0942 38.7833 45.2574C38.6027 45.4206 38.386 45.5015 38.1333 45.5001H35.5333C35.2805 45.5001 35.0638 45.4192 34.8833 45.2574C34.7027 45.0956 34.5763 44.8876 34.5041 44.6334L34.0166 42.2501Z" fill="#11B6DB"/>
</g>
</svg>
