<svg width="24" height="25" viewBox="0 0 24 25" fill="currentColor" xmlns="http://www.w3.org/2000/svg">
<g id="Frame" clip-path="url(#clip0_272_17154)">
<g id="Group">
<path id="Vector" d="M3.741 1.7958L22.203 11.9498C22.2814 11.993 22.3468 12.0564 22.3923 12.1334C22.4378 12.2105 22.4618 12.2983 22.4618 12.3878C22.4618 12.4773 22.4378 12.5651 22.3923 12.6422C22.3468 12.7192 22.2814 12.7826 22.203 12.8258L3.741 22.9798C3.66487 23.0217 3.57915 23.043 3.49227 23.0417C3.4054 23.0403 3.32037 23.0164 3.24558 22.9721C3.17078 22.9279 3.1088 22.865 3.06573 22.7895C3.02267 22.7141 3.00001 22.6287 3 22.5418V2.2338C3.00001 2.14692 3.02267 2.06153 3.06573 1.98607C3.1088 1.91061 3.17078 1.84767 3.24558 1.80346C3.32037 1.75925 3.4054 1.73529 3.49227 1.73395C3.57915 1.7326 3.66487 1.75392 3.741 1.7958ZM5 13.3878V20.0048L18.85 12.3878L5 4.7708V11.3878H10V13.3878H5Z" fill="currentColor"/>
</g>
</g>
<defs>
<clipPath id="clip0_272_17154">
<rect width="24" height="24" fill="currentColor" transform="translate(0 0.387817)"/>
</clipPath>
</defs>
</svg>
