<svg width="26" height="26" viewBox="0 0 26 26" fill="none" xmlns="http://www.w3.org/2000/svg">
<path d="M12.9998 5.41667C7.61675 5.41667 2.1665 7.09151 2.1665 10.2917C2.1665 13.4918 7.61675 15.1667 12.9998 15.1667C18.384 15.1667 23.8332 13.4918 23.8332 10.2917C23.8332 7.09151 18.384 5.41667 12.9998 5.41667ZM7.58317 16.1828V19.4328C8.92325 19.7568 10.4053 19.955 11.9165 20.0189V16.7689C10.4567 16.7121 9.00565 16.5158 7.58317 16.1828ZM14.0832 16.7678V20.0178C15.5431 19.9621 16.9942 19.7658 18.4165 19.4318V16.1818C16.9942 16.5158 15.5431 16.7121 14.0832 16.7678ZM20.5832 15.4884V18.7384C22.5343 17.9205 23.8332 16.7267 23.8332 15.1667V11.9167C23.8332 13.4767 22.5343 14.6705 20.5832 15.4884ZM5.4165 18.7384V15.4884C3.4665 14.6705 2.1665 13.4756 2.1665 11.9167V15.1667C2.1665 16.7256 3.4665 17.9205 5.4165 18.7384Z" fill="#29DF77"/>
</svg>
