<svg width="25" height="25" viewBox="0 0 25 25" fill="currentColor" xmlns="http://www.w3.org/2000/svg">
<path d="M21.8696 7.19062C21.8352 6.83437 21.6206 6.52083 21.2998 6.36041L12.9946 2.19374C12.7019 2.04478 12.356 2.04583 12.0623 2.19166L3.70082 6.35833C3.39145 6.51458 3.1779 6.81353 3.13415 7.15728C3.12061 7.25833 1.94145 17.3042 12.031 22.7906C12.1852 22.875 12.3571 22.9167 12.5279 22.9167C12.705 22.9167 12.8821 22.8719 13.0404 22.7812C22.7352 17.3031 21.9092 7.60103 21.8696 7.19062ZM12.5185 20.674C5.37269 16.4969 5.08103 9.89062 5.16124 7.96041L12.5269 4.29062L19.8164 7.94791C19.8217 9.89583 19.3154 16.5344 12.5185 20.674Z" fill="currentColor"/>
</svg>
