<svg width="23" height="26" viewBox="0 0 23 28" fill="none" xmlns="http://www.w3.org/2000/svg">
<g clip-path="url(#clip0_1533_9292)">
<path d="M9.99136 9.20416C10.1938 8.99101 10.5066 8.83599 10.893 8.75848V11.3938C10.3594 11.2388 10.0282 11.0644 9.89936 10.8318C9.75216 10.6381 9.66016 10.3862 9.66016 10.0761C9.66016 9.74672 9.77056 9.45606 9.99136 9.20416Z" fill="#29DF77"/>
<path d="M13.2298 14.5716C13.4138 14.8041 13.4874 15.056 13.4874 15.3855C13.4874 16.1993 13.0458 16.6837 12.1626 16.8387V14.0291C12.6962 14.1841 13.0458 14.3778 13.2298 14.5716Z" fill="#29DF77"/>
<path d="M11.5 0L0 4.22422V13.9903C0 18.9896 2.9072 22.4775 5.6304 24.6478C7.1576 25.8685 8.8504 26.8761 10.6168 27.6512C10.764 27.7093 10.9296 27.7675 11.0768 27.8256H11.1136L11.5 28L11.8864 27.845H11.9232C11.9232 27.845 11.9968 27.8062 12.0152 27.7869C13.9288 27.0118 15.732 25.946 17.3696 24.6478C20.0928 22.4775 23 18.9896 23 13.9903V4.22422L11.5 0ZM14.9224 17.8076C14.2232 18.4858 13.3032 18.8346 12.1624 18.9315V20.6173H10.8928V18.8927C9.844 18.7765 8.9792 18.3889 8.3352 17.8076C7.6544 17.2069 7.2312 16.3931 7.0656 15.4048H9.4024C9.4944 15.7536 9.66 16.0443 9.8992 16.2962C10.1384 16.5481 10.4696 16.7225 10.8928 16.8V13.7578L10.3224 13.6415C9.2368 13.409 8.464 13.0215 7.9488 12.4595C7.452 11.8782 7.2128 11.1419 7.2128 10.2311C7.2128 9.55294 7.36 8.95225 7.6912 8.44844C8.0224 7.94464 8.464 7.53772 9.0344 7.22768C9.5864 6.91765 10.1936 6.72388 10.8928 6.66574V4.86367H12.1624V6.68512C13.1376 6.82076 13.9472 7.15017 14.5728 7.73149C15.2168 8.3128 15.6216 9.06851 15.824 10.018H13.4688C13.2848 9.33979 12.8616 8.9135 12.1624 8.77785V11.6457L12.604 11.7232C13.708 11.9557 14.536 12.3433 15.1064 12.9246C15.6768 13.5253 15.9528 14.281 15.9528 15.2304C15.9528 16.3156 15.6032 17.1682 14.9224 17.8076Z" fill="#29DF77"/>
</g>
<defs>
<clipPath id="clip0_1533_9292">
<rect width="23" height="28" fill="white"/>
</clipPath>
</defs>
</svg>
