<svg width="22" height="22" viewBox="0 0 22 22" fill="none" xmlns="http://www.w3.org/2000/svg">
<g id="ic:outline-reddit">
<path id="Vector" d="M9.85393 11.9533C9.85393 11.4308 9.4231 11 8.9006 11C8.3781 11 7.94727 11.4308 7.94727 11.9533C7.94727 12.2062 8.04771 12.4487 8.22649 12.6274C8.40528 12.8062 8.64776 12.9067 8.9006 12.9067C9.15344 12.9067 9.39592 12.8062 9.57471 12.6274C9.75349 12.4487 9.85393 12.2062 9.85393 11.9533ZM12.9156 14.1258C12.5031 14.5383 11.6231 14.685 10.9998 14.685C10.3764 14.685 9.49643 14.5383 9.08393 14.1258C9.06163 14.102 9.03467 14.0829 9.00471 14.0699C8.97475 14.0569 8.94243 14.0502 8.90977 14.0502C8.8771 14.0502 8.84479 14.0569 8.81482 14.0699C8.78486 14.0829 8.7579 14.102 8.7356 14.1258C8.71173 14.1481 8.6927 14.1751 8.67968 14.2051C8.66667 14.235 8.65996 14.2673 8.65996 14.3C8.65996 14.3327 8.66667 14.365 8.67968 14.3949C8.6927 14.4249 8.71173 14.4519 8.7356 14.4742C9.38643 15.125 10.6331 15.18 10.9998 15.18C11.3664 15.18 12.6131 15.125 13.2639 14.4742C13.2878 14.4519 13.3068 14.4249 13.3198 14.3949C13.3329 14.365 13.3396 14.3327 13.3396 14.3C13.3396 14.2673 13.3329 14.235 13.3198 14.2051C13.3068 14.1751 13.2878 14.1481 13.2639 14.1258C13.1723 14.0342 13.0164 14.0342 12.9156 14.1258ZM13.0989 11C12.5764 11 12.1456 11.4308 12.1456 11.9533C12.1456 12.4758 12.5764 12.9067 13.0989 12.9067C13.6214 12.9067 14.0523 12.4758 14.0523 11.9533C14.0523 11.4308 13.6306 11 13.0989 11Z" fill="#4F4F4F"/>
<path id="Vector_2" d="M11.0002 1.83325C5.94016 1.83325 1.8335 5.93992 1.8335 10.9999C1.8335 16.0599 5.94016 20.1666 11.0002 20.1666C16.0602 20.1666 20.1668 16.0599 20.1668 10.9999C20.1668 5.93992 16.0602 1.83325 11.0002 1.83325ZM16.3168 12.2191C16.3352 12.3474 16.3443 12.4849 16.3443 12.6224C16.3443 14.6758 13.9518 16.3441 11.0002 16.3441C8.0485 16.3441 5.656 14.6758 5.656 12.6224C5.656 12.4849 5.66516 12.3474 5.6835 12.2191C5.216 12.0083 4.89516 11.5408 4.89516 10.9999C4.8938 10.7371 4.97015 10.4797 5.11461 10.2601C5.25906 10.0404 5.46519 9.86841 5.70711 9.76558C5.94902 9.66274 6.21592 9.63368 6.4743 9.68204C6.73267 9.73041 6.97099 9.85404 7.15933 10.0374C8.08516 9.36825 9.3685 8.94659 10.7893 8.90075L11.4677 5.70159C11.4768 5.63742 11.5135 5.58242 11.5685 5.55492C11.6235 5.51825 11.6877 5.50909 11.7518 5.51825L13.9702 5.99492C14.0454 5.84237 14.1601 5.71272 14.3023 5.61943C14.4445 5.52614 14.6091 5.4726 14.779 5.46437C14.9489 5.45614 15.1179 5.49352 15.2685 5.57262C15.4191 5.65172 15.5458 5.76967 15.6354 5.91424C15.725 6.0588 15.7744 6.22472 15.7783 6.39477C15.7821 6.56482 15.7405 6.73282 15.6576 6.88133C15.5746 7.02985 15.4535 7.15347 15.3067 7.23938C15.1599 7.3253 14.9928 7.37037 14.8227 7.36992C14.3093 7.36992 13.8968 6.96659 13.8693 6.46242L11.8802 6.04075L11.2752 8.90075C12.6777 8.94659 13.9335 9.37742 14.8502 10.0374C14.9907 9.90323 15.1588 9.80137 15.3428 9.73895C15.5268 9.67654 15.7223 9.65508 15.9154 9.67608C16.1086 9.69708 16.2948 9.76003 16.4611 9.86053C16.6274 9.96103 16.7697 10.0966 16.8781 10.2579C16.9866 10.4192 17.0584 10.6021 17.0887 10.7941C17.119 10.986 17.107 11.1822 17.0535 11.369C17.0001 11.5558 16.9064 11.7287 16.7792 11.8755C16.6519 12.0224 16.4941 12.1396 16.3168 12.2191Z" fill="#4F4F4F"/>
</g>
</svg>
