<svg width="24" height="24" viewBox="0 0 22 23" fill="currentColor" xmlns="http://www.w3.org/2000/svg">
<path d="M9.85393 12.4533C9.85393 11.9308 9.4231 11.5 8.9006 11.5C8.3781 11.5 7.94727 11.9308 7.94727 12.4533C7.94727 12.7062 8.04771 12.9487 8.22649 13.1274C8.40528 13.3062 8.64776 13.4067 8.9006 13.4067C9.15344 13.4067 9.39592 13.3062 9.57471 13.1274C9.75349 12.9487 9.85393 12.7062 9.85393 12.4533ZM12.9156 14.6258C12.5031 15.0383 11.6231 15.185 10.9998 15.185C10.3764 15.185 9.49643 15.0383 9.08393 14.6258C9.06163 14.602 9.03467 14.5829 9.00471 14.5699C8.97475 14.5569 8.94243 14.5502 8.90977 14.5502C8.8771 14.5502 8.84479 14.5569 8.81482 14.5699C8.78486 14.5829 8.7579 14.602 8.7356 14.6258C8.71173 14.6481 8.6927 14.6751 8.67968 14.7051C8.66667 14.735 8.65996 14.7673 8.65996 14.8C8.65996 14.8327 8.66667 14.865 8.67968 14.8949C8.6927 14.9249 8.71173 14.9519 8.7356 14.9742C9.38643 15.625 10.6331 15.68 10.9998 15.68C11.3664 15.68 12.6131 15.625 13.2639 14.9742C13.2878 14.9519 13.3068 14.9249 13.3198 14.8949C13.3329 14.865 13.3396 14.8327 13.3396 14.8C13.3396 14.7673 13.3329 14.735 13.3198 14.7051C13.3068 14.6751 13.2878 14.6481 13.2639 14.6258C13.1723 14.5342 13.0164 14.5342 12.9156 14.6258ZM13.0989 11.5C12.5764 11.5 12.1456 11.9308 12.1456 12.4533C12.1456 12.9758 12.5764 13.4067 13.0989 13.4067C13.6214 13.4067 14.0523 12.9758 14.0523 12.4533C14.0523 11.9308 13.6306 11.5 13.0989 11.5Z" fill="currentColor"/>
<path d="M11.0007 2.33325C5.94064 2.33325 1.83398 6.43992 1.83398 11.4999C1.83398 16.5599 5.94064 20.6666 11.0007 20.6666C16.0607 20.6666 20.1673 16.5599 20.1673 11.4999C20.1673 6.43992 16.0607 2.33325 11.0007 2.33325ZM16.3173 12.7191C16.3357 12.8474 16.3448 12.9849 16.3448 13.1224C16.3448 15.1758 13.9523 16.8441 11.0007 16.8441C8.04898 16.8441 5.65648 15.1758 5.65648 13.1224C5.65648 12.9849 5.66564 12.8474 5.68398 12.7191C5.21648 12.5083 4.89564 12.0408 4.89564 11.4999C4.89428 11.2371 4.97063 10.9797 5.11509 10.7601C5.25954 10.5404 5.46567 10.3684 5.70759 10.2656C5.9495 10.1627 6.2164 10.1337 6.47478 10.182C6.73315 10.2304 6.97147 10.354 7.15981 10.5374C8.08564 9.86825 9.36898 9.44659 10.7898 9.40075L11.4682 6.20159C11.4773 6.13742 11.514 6.08242 11.569 6.05492C11.624 6.01825 11.6882 6.00909 11.7523 6.01825L13.9707 6.49492C14.0459 6.34237 14.1606 6.21272 14.3028 6.11943C14.445 6.02614 14.6096 5.9726 14.7795 5.96437C14.9494 5.95614 15.1184 5.99352 15.269 6.07262C15.4196 6.15172 15.5463 6.26967 15.6359 6.41424C15.7255 6.5588 15.7749 6.72472 15.7788 6.89477C15.7826 7.06482 15.741 7.23282 15.6581 7.38133C15.5751 7.52985 15.454 7.65347 15.3072 7.73938C15.1604 7.8253 14.9933 7.87037 14.8232 7.86992C14.3098 7.86992 13.8973 7.46659 13.8698 6.96242L11.8807 6.54075L11.2757 9.40075C12.6782 9.44659 13.934 9.87742 14.8507 10.5374C14.9912 10.4032 15.1593 10.3014 15.3433 10.239C15.5273 10.1765 15.7228 10.1551 15.9159 10.1761C16.1091 10.1971 16.2953 10.26 16.4616 10.3605C16.6279 10.461 16.7702 10.5966 16.8786 10.7579C16.9871 10.9192 17.0589 11.1021 17.0892 11.2941C17.1195 11.486 17.1075 11.6822 17.054 11.869C17.0006 12.0558 16.9069 12.2287 16.7797 12.3755C16.6524 12.5224 16.4946 12.6396 16.3173 12.7191Z" fill="currentColor"/>
</svg>
