<svg width="24" height="24" viewBox="0 0 24 24" fill="none" xmlns="http://www.w3.org/2000/svg">
<g id="ion:rocket">
<path id="Vector" d="M15.415 7.34952C15.1255 7.34968 14.8451 7.45019 14.6214 7.63393C14.3978 7.81766 14.2448 8.07326 14.1885 8.35716C14.1321 8.64107 14.176 8.93572 14.3126 9.19091C14.4491 9.44611 14.67 9.64606 14.9374 9.7567C15.2049 9.86734 15.5024 9.88182 15.7794 9.79767C16.0563 9.71353 16.2955 9.53597 16.4562 9.29524C16.6169 9.05451 16.6892 8.76551 16.6607 8.47748C16.6322 8.18944 16.5047 7.9202 16.3 7.71561C16.1839 7.59927 16.0459 7.50704 15.894 7.44421C15.7421 7.38138 15.5793 7.3492 15.415 7.34952Z" fill="#2DFE87"/>
<path id="Vector_2" d="M22.3802 2.34656V2.34234C22.3406 2.16859 22.2531 2.00936 22.1278 1.88264C22.0025 1.75592 21.8443 1.66673 21.671 1.62516C20.2741 1.28438 18.0766 1.64766 15.6414 2.62266C13.1871 3.60703 10.8874 5.06016 9.33301 6.61734C8.83479 7.11291 8.37194 7.64281 7.94785 8.20313C6.90113 8.15625 5.9791 8.30531 5.20238 8.64422C2.49582 9.83531 1.72285 12.8836 1.51707 14.1352C1.48729 14.313 1.49895 14.4953 1.55114 14.6679C1.60333 14.8405 1.69464 14.9987 1.81796 15.1302C1.94129 15.2618 2.0933 15.3631 2.26217 15.4262C2.43105 15.4894 2.61222 15.5128 2.7916 15.4945H2.79769L5.81269 15.1655C5.81644 15.2039 5.82066 15.2391 5.82394 15.2714C5.86267 15.6388 6.02651 15.9817 6.28801 16.2427L7.75941 17.715C8.01997 17.9769 8.36281 18.1409 8.73019 18.1795L8.83097 18.1903L8.50285 21.2016V21.2077C8.48608 21.3698 8.50334 21.5337 8.55352 21.6889C8.6037 21.844 8.68569 21.9869 8.79427 22.1086C8.90284 22.2302 9.0356 22.3278 9.18406 22.3952C9.33252 22.4626 9.49341 22.4983 9.65644 22.5C9.72161 22.5001 9.78668 22.4947 9.85097 22.4841C11.1096 22.2816 14.1564 21.518 15.3443 18.7969C15.6803 18.0253 15.8289 17.107 15.7872 16.0622C16.3501 15.639 16.8819 15.1761 17.3786 14.677C18.9457 13.118 20.4035 10.837 21.3775 8.41828C22.3474 6.01078 22.7125 3.79688 22.3802 2.34656ZM17.3618 10.5441C16.9766 10.9296 16.4857 11.1923 15.9513 11.2988C15.4168 11.4053 14.8628 11.351 14.3592 11.1425C13.8557 10.9341 13.4252 10.581 13.1224 10.1279C12.8196 9.67482 12.6579 9.14209 12.6579 8.59711C12.6579 8.05213 12.8196 7.5194 13.1224 7.0663C13.4252 6.61321 13.8557 6.26011 14.3592 6.05169C14.8628 5.84327 15.4168 5.78888 15.9513 5.89541C16.4857 6.00194 16.9766 6.2646 17.3618 6.65016C17.6199 6.90444 17.8249 7.20752 17.9649 7.54177C18.1048 7.87601 18.1769 8.23475 18.1769 8.59711C18.1769 8.95947 18.1048 9.31821 17.9649 9.65245C17.8249 9.9867 17.6199 10.2898 17.3618 10.5441Z" fill="#2DFE87"/>
<path id="Vector_3" d="M7.59023 18.1144C7.40884 18.0919 7.22548 18.1364 7.0746 18.2395C6.77507 18.4444 6.47413 18.6469 6.17038 18.8442C5.55585 19.2436 4.82085 18.5423 5.18601 17.9067L5.75554 16.9223C5.83696 16.8032 5.8823 16.6632 5.88612 16.5189C5.88994 16.3747 5.85207 16.2324 5.77706 16.1092C5.70205 15.9859 5.59308 15.8869 5.46322 15.824C5.33336 15.7612 5.18812 15.7371 5.04491 15.7547C4.4128 15.8346 3.82524 16.1225 3.37476 16.5731C3.2032 16.7452 2.68148 17.2673 2.4007 19.2572C2.32077 19.8287 2.27039 20.404 2.24976 20.9808C2.24719 21.0809 2.2647 21.1805 2.30124 21.2737C2.33778 21.3669 2.39261 21.4519 2.46252 21.5236C2.53242 21.5953 2.61597 21.6522 2.70824 21.6911C2.80051 21.73 2.89963 21.75 2.99976 21.75H3.01851C3.5957 21.7296 4.17145 21.6795 4.74351 21.6C6.73429 21.3187 7.25648 20.7966 7.42804 20.625C7.8807 20.1743 8.16794 19.584 8.2432 18.9497C8.26729 18.7523 8.21205 18.5535 8.08961 18.3969C7.96717 18.2402 7.78755 18.1386 7.59023 18.1144Z" fill="#2DFE87"/>
</g>
</svg>
