<svg width="26" height="27" viewBox="0 0 26 27" fill="none" xmlns="http://www.w3.org/2000/svg">
<g id="Group">
<path id="Vector" d="M12.9739 25.3356C19.5869 25.3356 24.9478 19.9747 24.9478 13.3617C24.9478 6.74866 19.5869 1.38782 12.9739 1.38782C6.36085 1.38782 1 6.74866 1 13.3617C1 19.9747 6.36085 25.3356 12.9739 25.3356Z" stroke="currentColor" stroke-width="1.6"/>
<path id="Vector_2" d="M13.1767 7.8821C13.1767 8.04357 13.1125 8.19843 12.9983 8.31261C12.8842 8.42679 12.7293 8.49094 12.5678 8.49094C12.4064 8.49094 12.2515 8.42679 12.1373 8.31261C12.0231 8.19843 11.959 8.04357 11.959 7.8821C11.959 7.72062 12.0231 7.56576 12.1373 7.45158C12.2515 7.3374 12.4064 7.27325 12.5678 7.27325C12.7293 7.27325 12.8842 7.3374 12.9983 7.45158C13.1125 7.56576 13.1767 7.72062 13.1767 7.8821Z" fill="currentColor" stroke="currentColor"/>
<g id="Vector_3">
<path d="M12.5679 19.4501V10.9263V19.4501Z" fill="currentColor"/>
<path d="M12.5679 19.4501V10.9263" stroke="currentColor" stroke-width="2"/>
</g>
</g>
</svg>
