<svg width="52" height="54" viewBox="0 0 52 54" fill="none" xmlns="http://www.w3.org/2000/svg">
<g id="mdi:idea">
<path id="Vector" d="M19.3333 33.165V32.1477L18.511 31.5486C15.0932 29.0582 12.8333 24.9501 12.8333 20.25C12.8333 16.5794 14.2381 13.0737 16.7161 10.5004C19.1917 7.92959 22.5328 6.5 25.9999 6.5C29.4671 6.5 32.8082 7.92959 35.2837 10.5004C37.7618 13.0737 39.1666 16.5794 39.1666 20.25C39.1666 24.9501 36.9066 29.0582 33.4888 31.5486L32.6666 32.1477V33.165V38.25C32.6666 38.3402 32.6314 38.4121 32.5913 38.4537C32.5538 38.4927 32.5192 38.5 32.4999 38.5H19.4999C19.4806 38.5 19.4461 38.4927 19.4085 38.4537C19.3684 38.4121 19.3333 38.3401 19.3333 38.25V33.165ZM21.5752 47.4537C21.5351 47.4121 21.4999 47.3402 21.4999 47.25V47H30.4999V47.25C30.4999 47.3402 30.4647 47.4121 30.4247 47.4537C30.3871 47.4927 30.3526 47.5 30.3333 47.5H21.6666C21.6473 47.5 21.6127 47.4927 21.5752 47.4537Z" stroke="#22CDA6" stroke-width="4"/>
</g>
</svg>
