<svg width="65" height="65" viewBox="0 0 65 65" fill="none" xmlns="http://www.w3.org/2000/svg">
<circle opacity="0.4" cx="32.5" cy="32.5" r="32" stroke="white"/>
<g clip-path="url(#clip0_42_113)">
<path d="M30 45C30.5304 45 31.0391 44.7893 31.4142 44.4142C31.7893 44.0391 32 43.5304 32 43V30C32 29.4696 31.7893 28.9609 31.4142 28.5858C31.0391 28.2107 30.5304 28 30 28H24C23.4696 28 22.9609 28.2107 22.5858 28.5858C22.2107 28.9609 22 29.4696 22 30V43C22 43.5304 22.2107 44.0391 22.5858 44.4142C22.9609 44.7893 23.4696 45 24 45H30ZM30 30V43H24V30H30Z" fill="#0FD7D2"/>
<path d="M44 23C44 22.4696 43.7893 21.9609 43.4142 21.5858C43.0391 21.2107 42.5304 21 42 21H36C35.4696 21 34.9609 21.2107 34.5858 21.5858C34.2107 21.9609 34 22.4696 34 23V43C34 43.5304 34.2107 44.0391 34.5858 44.4142C34.9609 44.7893 35.4696 45 36 45H42C42.5304 45 43.0391 44.7893 43.4142 44.4142C43.7893 44.0391 44 43.5304 44 43V23ZM36 23H42V43H36V23Z" fill="#0FD7D2"/>
</g>
<defs>
<clipPath id="clip0_42_113">
<rect width="22" height="24" fill="white" transform="translate(22 21)"/>
</clipPath>
</defs>
</svg>
