<svg width="25" height="25" viewBox="0 0 25 25" fill="currentColor" xmlns="http://www.w3.org/2000/svg">
<g id="Frame">
<path id="Vector" d="M10.7751 2.58594C5.29855 2.58594 0.861328 7.02316 0.861328 12.4997C0.861328 17.9763 5.29855 22.4135 10.7751 22.4135C16.2517 22.4135 20.6889 17.9763 20.6889 12.4997C20.6889 7.02316 16.2517 2.58594 10.7751 2.58594ZM15.6441 9.37768L14.0171 17.0449C13.8972 17.5885 13.5734 17.7205 13.1216 17.4646L10.6432 15.6378L9.44795 16.789C9.31603 16.921 9.2041 17.0329 8.94826 17.0329L9.12415 14.5105L13.7173 10.3611C13.9171 10.1852 13.6733 10.0852 13.4095 10.2611L7.73302 13.8349L5.28655 13.0714C4.75489 12.9035 4.7429 12.5397 5.39849 12.2839L14.9565 8.59817C15.4002 8.43827 15.788 8.7061 15.6441 9.37768Z" fill="currentColor"/>
</g>
</svg>
