<svg width="22" height="22" viewBox="0 0 22 22" fill="none" xmlns="http://www.w3.org/2000/svg">
<g id="fa-brands:telegram" clip-path="url(#clip0_235_1050)">
<path id="Vector" d="M10.6602 0.34375C4.77344 0.34375 0.00390625 5.11328 0.00390625 11C0.00390625 16.8867 4.77344 21.6562 10.6602 21.6562C16.5469 21.6562 21.3164 16.8867 21.3164 11C21.3164 5.11328 16.5469 0.34375 10.6602 0.34375ZM15.8937 7.64414L14.1449 15.8855C14.016 16.4699 13.668 16.6117 13.1824 16.3367L10.5184 14.373L9.23359 15.6105C9.0918 15.7523 8.97148 15.8727 8.69648 15.8727L8.88555 13.1613L13.8227 8.70117C14.0375 8.51211 13.7754 8.40469 13.4918 8.59375L7.39023 12.4352L4.76055 11.6145C4.18906 11.434 4.17617 11.043 4.88086 10.768L15.1547 6.80625C15.6316 6.63437 16.0484 6.92227 15.8937 7.64414Z" fill="#4F4F4F"/>
</g>
<defs>
<clipPath id="clip0_235_1050">
<rect width="21.32" height="22" fill="white"/>
</clipPath>
</defs>
</svg>
