<svg width="66" height="65" viewBox="0 0 66 65" fill="none" xmlns="http://www.w3.org/2000/svg">
<circle opacity="0.4" cx="33" cy="32.5" r="32" stroke="white"/>
<path d="M22.8751 37V21C22.8751 20.6463 23.0112 20.3072 23.2534 20.0572C23.4956 19.8071 23.8242 19.6666 24.1667 19.6666H44.8334C45.176 19.6666 45.5045 19.8071 45.7468 20.0572C45.989 20.3072 46.1251 20.6463 46.1251 21V42.3333C46.1251 43.3942 45.7168 44.4116 44.9901 45.1617C44.2634 45.9119 43.2778 46.3333 42.2501 46.3333H24.1667C23.139 46.3333 22.1534 45.9119 21.4267 45.1617C20.7 44.4116 20.2917 43.3942 20.2917 42.3333V39.6666H40.9584V42.3333C40.9584 42.6869 41.0945 43.0261 41.3367 43.2761C41.579 43.5261 41.9075 43.6666 42.2501 43.6666C42.5927 43.6666 42.9212 43.5261 43.1634 43.2761C43.4057 43.0261 43.5417 42.6869 43.5417 42.3333V37H22.8751Z" fill="#0FD7D2"/>
</svg>
