<svg width="65" height="65" viewBox="0 0 65 65" fill="none" xmlns="http://www.w3.org/2000/svg">
<circle opacity="0.4" cx="32.5" cy="32.5" r="32" stroke="white"/>
<path d="M37.3332 32.5C36.091 32.5 34.8899 31.9523 33.9498 30.9584C33.0357 29.9889 32.4775 28.6961 32.379 27.3192C32.2739 25.8504 32.7276 24.4997 33.6562 23.5153C34.5848 22.531 35.8832 22 37.3332 22C38.7729 22 40.0749 22.5405 41.0004 23.5225C41.9351 24.514 42.39 25.8623 42.2849 27.3186C42.184 28.6973 41.6264 29.9895 40.7141 30.9578C39.7764 31.9523 38.5759 32.5 37.3332 32.5ZM45.2979 43H29.3691C29.113 43.0013 28.86 42.9446 28.6296 42.8343C28.3991 42.7239 28.1974 42.5628 28.0399 42.3634C27.8729 42.1472 27.7575 41.8965 27.7025 41.6301C27.6474 41.3636 27.6542 41.0883 27.7221 40.8248C28.2308 38.8077 29.4911 37.1349 31.3664 35.9877C33.0309 34.9699 35.1497 34.4091 37.3332 34.4091C39.5595 34.4091 41.6227 34.946 43.2969 35.9632C45.1764 37.1045 46.4385 38.7869 46.9448 40.8284C47.0119 41.0921 47.0179 41.3674 46.9623 41.6337C46.9066 41.9 46.7908 42.1505 46.6234 42.3664C46.4661 42.5649 46.2648 42.7252 46.035 42.835C45.8053 42.9448 45.5531 43.0013 45.2979 43ZM25.9145 32.7386C23.7884 32.7386 21.9191 30.7866 21.7457 28.3877C21.66 27.1587 22.0478 26.0222 22.8332 25.1888C23.6102 24.3637 24.7061 23.9091 25.9145 23.9091C27.1228 23.9091 28.2103 24.3661 28.9915 25.1959C29.7829 26.0359 30.1696 27.1701 30.079 28.3889C29.9056 30.7872 28.0369 32.7386 25.9145 32.7386ZM29.8814 34.6149C28.8187 34.1018 27.4394 33.8453 25.9151 33.8453C24.1352 33.8453 22.4067 34.3035 21.0473 35.1351C19.5061 36.0795 18.4694 37.4547 18.0507 39.115C17.9894 39.3538 17.9836 39.6032 18.0337 39.8445C18.0838 40.0859 18.1886 40.3129 18.3401 40.5086C18.4838 40.6909 18.668 40.8381 18.8784 40.9391C19.0888 41.04 19.3199 41.0919 19.5538 41.0909H26.2601C26.3732 41.0909 26.4828 41.0516 26.5697 40.98C26.6566 40.9084 26.7153 40.8089 26.7355 40.6989C26.7422 40.6613 26.7506 40.6238 26.7603 40.5868C27.2726 38.5548 28.4731 36.8378 30.2469 35.5862C30.3122 35.5397 30.3646 35.4779 30.3996 35.4064C30.4346 35.3349 30.4509 35.2559 30.4471 35.1765C30.4433 35.0972 30.4196 35.0201 30.378 34.9521C30.3364 34.8841 30.2782 34.8275 30.2089 34.7873C30.114 34.7324 30.0053 34.6746 29.8814 34.6149Z" fill="#0FD7D2"/>
</svg>
