<svg width="25" height="25" viewBox="0 0 25 25" fill="currentColor" xmlns="http://www.w3.org/2000/svg">
<g id="Frame">
<path id="Vector" d="M18.6508 8.39256C18.6634 8.5717 18.6634 8.75088 18.6634 8.93002C18.6634 14.394 14.5746 20.6899 7.1015 20.6899C4.79917 20.6899 2.66042 20.0116 0.861328 18.8344C1.18845 18.8728 1.50294 18.8856 1.84264 18.8856C3.74234 18.8856 5.49112 18.233 6.88762 17.1197C5.10112 17.0813 3.60397 15.8912 3.08814 14.2533C3.33978 14.2917 3.59139 14.3173 3.85561 14.3173C4.22045 14.3173 4.58533 14.2661 4.92499 14.1765C3.06301 13.7926 1.66648 12.1291 1.66648 10.1201V10.0689C2.20744 10.376 2.83654 10.568 3.50329 10.5935C2.40874 9.85133 1.69165 8.58451 1.69165 7.1513C1.69165 6.38354 1.89291 5.67974 2.2452 5.06551C4.24558 7.57359 7.25245 9.2115 10.6241 9.39067C10.5612 9.08356 10.5235 8.76368 10.5235 8.44377C10.5235 6.16599 12.3351 4.31055 14.5871 4.31055C15.7572 4.31055 16.814 4.8096 17.5563 5.61577C18.4746 5.43663 19.3553 5.09111 20.1354 4.61766C19.8334 5.57741 19.1918 6.38358 18.3489 6.8954C19.1666 6.80587 19.9592 6.57548 20.6889 6.2556C20.1354 7.07454 19.4434 7.8039 18.6508 8.39256Z" fill="currentColor"/>
</g>
</svg>
