<svg width="21" height="22" viewBox="0 0 21 22" fill="none" xmlns="http://www.w3.org/2000/svg">
<g id="uil:twitter">
<path id="Vector" d="M19.25 5.57494C18.5923 5.86027 17.8967 6.04889 17.185 6.13494C17.9359 5.68634 18.4986 4.98062 18.7688 4.14869C18.0631 4.56874 17.2907 4.8647 16.485 5.02369C15.9465 4.43969 15.2293 4.05095 14.4461 3.91843C13.6628 3.78592 12.8577 3.91713 12.1571 4.29148C11.4564 4.66583 10.8998 5.26215 10.5746 5.98692C10.2494 6.71169 10.1739 7.52391 10.36 8.29619C8.93325 8.22402 7.53764 7.85252 6.26382 7.20582C4.99001 6.55911 3.86649 5.65167 2.96625 4.54244C2.6505 5.09384 2.48458 5.71828 2.485 6.35369C2.48388 6.94377 2.62869 7.52498 2.90654 8.04556C3.18438 8.56614 3.58664 9.00994 4.0775 9.33744C3.50698 9.32192 2.94865 9.16883 2.45 8.89119V8.93494C2.45428 9.76172 2.74399 10.5616 3.27015 11.1994C3.79631 11.8372 4.5266 12.2736 5.3375 12.4349C5.02535 12.5299 4.70127 12.58 4.375 12.5837C4.14915 12.5811 3.92387 12.5606 3.70125 12.5224C3.93217 13.2337 4.37905 13.8552 4.97969 14.3006C5.58034 14.746 6.30488 14.993 7.0525 15.0074C5.79005 16.0008 4.2314 16.5429 2.625 16.5474C2.33252 16.5484 2.04027 16.5309 1.75 16.4949C3.39012 17.5539 5.30146 18.1161 7.25375 18.1137C8.60098 18.1277 9.93749 17.8731 11.1852 17.3648C12.433 16.8564 13.5669 16.1046 14.5208 15.1531C15.4747 14.2017 16.2295 13.0697 16.741 11.8232C17.2525 10.5768 17.5105 9.24095 17.5 7.89369V7.42994C18.1866 6.9179 18.7788 6.29019 19.25 5.57494Z" fill="#4F4F4F"/>
</g>
</svg>
