<svg width="24" height="25" viewBox="0 0 24 25" fill="currentColor" xmlns="http://www.w3.org/2000/svg">
<g id="mdi:web">
<path id="Vector" d="M14.1549 14.4714C14.2337 13.8208 14.2929 13.1703 14.2929 12.5C14.2929 11.8297 14.2337 11.1791 14.1549 10.5285H17.4866C17.6443 11.1594 17.7429 11.8198 17.7429 12.5C17.7429 13.1801 17.6443 13.8405 17.4866 14.4714M12.4101 19.952C13.0016 18.8578 13.455 17.675 13.7704 16.4428H16.6783C15.7233 18.0873 14.2082 19.3329 12.4101 19.952ZM12.1637 14.4714H7.55057C7.452 13.8208 7.39286 13.1703 7.39286 12.5C7.39286 11.8297 7.452 11.1693 7.55057 10.5285H12.1637C12.2524 11.1693 12.3214 11.8297 12.3214 12.5C12.3214 13.1703 12.2524 13.8208 12.1637 14.4714ZM9.85714 20.3463C9.039 19.1634 8.37857 17.8524 7.97443 16.4428H11.7399C11.3357 17.8524 10.6753 19.1634 9.85714 20.3463ZM5.91429 8.55711H3.036C3.98116 6.90822 5.49516 5.66057 7.29429 5.04797C6.70286 6.14211 6.25929 7.32497 5.91429 8.55711ZM3.036 16.4428H5.91429C6.25929 17.675 6.70286 18.8578 7.29429 19.952C5.49893 19.3326 3.98706 18.0867 3.036 16.4428ZM2.22771 14.4714C2.07 13.8405 1.97143 13.1801 1.97143 12.5C1.97143 11.8198 2.07 11.1594 2.22771 10.5285H5.55943C5.48057 11.1791 5.42143 11.8297 5.42143 12.5C5.42143 13.1703 5.48057 13.8208 5.55943 14.4714M9.85714 4.64382C10.6753 5.82668 11.3357 7.14754 11.7399 8.55711H7.97443C8.37857 7.14754 9.039 5.82668 9.85714 4.64382ZM16.6783 8.55711H13.7704C13.4619 7.33626 13.0051 6.15778 12.4101 5.04797C14.2239 5.66897 15.732 6.92082 16.6783 8.55711ZM9.85714 2.64282C4.40614 2.64282 0 7.07854 0 12.5C0 15.1142 1.03852 17.6214 2.88709 19.47C3.80241 20.3853 4.88905 21.1114 6.08498 21.6068C7.2809 22.1022 8.56269 22.3571 9.85714 22.3571C12.4714 22.3571 14.9786 21.3186 16.8272 19.47C18.6758 17.6214 19.7143 15.1142 19.7143 12.5C19.7143 11.2055 19.4593 9.92373 18.964 8.7278C18.4686 7.53188 17.7425 6.44523 16.8272 5.52991C15.9119 4.61459 14.8252 3.88852 13.6293 3.39315C12.4334 2.89778 11.1516 2.64282 9.85714 2.64282Z" fill="currentColor"/>
</g>
</svg>
