<svg width="25" height="21" viewBox="0 0 25 21" fill="currentColor" xmlns="http://www.w3.org/2000/svg">
<g id="Frame">
<path id="Vector" d="M23.8569 5.20518C23.5842 4.1787 22.781 3.37029 21.7612 3.09594C19.9127 2.59741 12.5003 2.59741 12.5003 2.59741C12.5003 2.59741 5.08798 2.59741 3.23941 3.09594C2.21957 3.37033 1.41636 4.1787 1.14375 5.20518C0.648438 7.06573 0.648438 10.9476 0.648438 10.9476C0.648438 10.9476 0.648438 14.8294 1.14375 16.69C1.41636 17.7165 2.21957 18.4912 3.23941 18.7655C5.08798 19.2641 12.5003 19.2641 12.5003 19.2641C12.5003 19.2641 19.9126 19.2641 21.7612 18.7655C22.781 18.4912 23.5842 17.7165 23.8569 16.69C24.3522 14.8294 24.3522 10.9476 24.3522 10.9476C24.3522 10.9476 24.3522 7.06573 23.8569 5.20518ZM10.076 14.472V7.42315L16.2713 10.9477L10.076 14.472Z" fill="currentColor"/>
</g>
</svg>
